<svg xmlns="http://www.w3.org/2000/svg" width="1200" height="440" viewBox="0 0 1200 440" role="img" aria-labelledby="title desc">
<title id="title">Curiosity, in progress.</title>
<desc id="desc">Zkvr's personal space. A warm paper cover with oversized charcoal type and an original terracotta loop sculpture.</desc>
<rect width="1200" height="440" rx="12" fill="#f1eee5"/>
<g font-family="'Segoe UI',Arial,sans-serif">
<text x="48" y="43" fill="#51594e" font-size="15" letter-spacing="1.5">zkvr / personal space</text>
<text x="1152" y="43" fill="#51594e" font-size="15" letter-spacing="1.5" text-anchor="end">IDEAS → ITERATIONS</text>
<path d="M48 65H1152" stroke="#c7c8b8"/>
<text x="42" y="180" fill="#252d28" font-size="98" font-weight="650" letter-spacing="-5">Curiosity,</text>
<text x="42" y="281" fill="#252d28" font-size="98" font-weight="650" letter-spacing="-5">in progress<tspan fill="#d5633e">.</tspan></text>
<text x="48" y="337" fill="#51594e" font-size="22" letter-spacing="-.25">A place for things worth tinkering with.</text>
</g>
<ellipse cx="962" cy="375" rx="161" ry="11" fill="#c5b8a2" opacity=".22"/>
<g stroke="#602b1d" stroke-opacity=".38" stroke-width=".65" stroke-linejoin="round">
<polygon points="879.15,182.71 901.16,174.25 894.48,159.02 870.86,167.73" fill="#a83d25"/>
<polygon points="870.86,167.73 894.48,159.02 888.36,143.70 863.66,152.43" fill="#a83d25"/>
<polygon points="858.12,193.54 879.15,182.71 870.86,167.73 848.28,179.00" fill="#a83d25"/>
<polygon points="901.16,174.25 923.17,168.13 918.10,152.82 894.48,159.02" fill="#a83d25"/>
<polygon points="848.28,179.00 870.86,167.73 863.66,152.43 840.03,163.85" fill="#a83d25"/>
<polygon points="894.48,159.02 918.10,152.82 913.06,137.62 888.36,143.70" fill="#a83d25"/>
<polygon points="887.71,195.90 907.74,187.90 901.16,174.25 879.15,182.71" fill="#a83d25"/>
<polygon points="868.59,206.04 887.71,195.90 879.15,182.71 858.12,193.54" fill="#a83d25"/>
<polygon points="863.66,152.43 888.36,143.70 883.39,129.81 858.24,138.30" fill="#a83d25"/>
<polygon points="907.74,187.90 927.79,182.05 923.17,168.13 901.16,174.25" fill="#a83d25"/>
<polygon points="839.14,206.45 858.12,193.54 848.28,179.00 827.86,192.55" fill="#a83d25"/>
<polygon points="923.17,168.13 944.49,164.10 940.98,148.86 918.10,152.82" fill="#a83d25"/>
<polygon points="918.10,152.82 940.98,148.86 936.99,133.86 913.06,137.62" fill="#a83d25"/>
<polygon points="888.36,143.70 913.06,137.62 908.55,124.02 883.39,129.81" fill="#a83d25"/>
<polygon points="827.86,192.55 848.28,179.00 840.03,163.85 818.65,177.71" fill="#a83d25"/>
<polygon points="840.03,163.85 863.66,152.43 858.24,138.30 834.18,149.57" fill="#a83d25"/>
<polygon points="851.40,218.04 868.59,206.04 858.12,193.54 839.14,206.45" fill="#a83d25"/>
<polygon points="927.79,182.05 947.20,178.11 944.49,164.10 923.17,168.13" fill="#a83d25"/>
<polygon points="913.06,137.62 936.99,133.86 932.93,120.58 908.55,124.02" fill="#a83d25"/>
<polygon points="944.49,164.10 964.80,161.73 962.75,146.66 940.98,148.86" fill="#a83d25"/>
<polygon points="895.70,206.00 913.58,198.65 907.74,187.90 887.71,195.90" fill="#a83d25"/>
<polygon points="940.98,148.86 962.75,146.66 959.77,131.92 936.99,133.86" fill="#a83d25"/>
<polygon points="818.65,177.71 840.03,163.85 834.18,149.57 812.42,163.38" fill="#a83d25"/>
<polygon points="878.68,215.28 895.70,206.00 887.71,195.90 868.59,206.04" fill="#a83d25"/>
<polygon points="823.19,220.90 839.14,206.45 827.86,192.55 810.63,207.83" fill="#a83d25"/>
<polygon points="913.58,198.65 931.49,193.22 927.79,182.05 907.74,187.90" fill="#a83d25"/>
<polygon points="858.24,138.30 883.39,129.81 880.07,118.68 855.14,126.72" fill="#a83d25"/>
<polygon points="810.63,207.83 827.86,192.55 818.65,177.71 800.59,193.46" fill="#a83d25"/>
<polygon points="883.39,129.81 908.55,124.02 905.02,113.34 880.07,118.68" fill="#a83d25"/>
<polygon points="947.20,178.11 965.70,175.68 964.80,161.73 944.49,164.10" fill="#a83d25"/>
<polygon points="834.18,149.57 858.24,138.30 855.14,126.72 831.31,137.55" fill="#a83d25"/>
<polygon points="837.02,231.39 851.40,218.04 839.14,206.45 823.19,220.90" fill="#a83d25"/>
<polygon points="863.44,226.20 878.68,215.28 868.59,206.04 851.40,218.04" fill="#a83d25"/>
<polygon points="936.99,133.86 959.77,131.92 956.13,118.97 932.93,120.58" fill="#a83d25"/>
<polygon points="931.49,193.22 948.83,189.50 947.20,178.11 927.79,182.05" fill="#a83d25"/>
<polygon points="964.80,161.73 984.11,160.59 983.45,145.74 962.75,146.66" fill="#a83d25"/>
<polygon points="908.55,124.02 932.93,120.58 929.19,110.32 905.02,113.34" fill="#a83d25"/>
<polygon points="962.75,146.66 983.45,145.74 981.39,131.29 959.77,131.92" fill="#a83d25"/>
<polygon points="800.59,193.46 818.65,177.71 812.42,163.38 794.05,179.19" fill="#a83d25"/>
<polygon points="812.42,163.38 834.18,149.57 831.31,137.55 809.79,150.96" fill="#a83d25"/>
<polygon points="965.70,175.68 983.32,174.37 984.11,160.59 964.80,161.73" fill="#a83d25"/>
<polygon points="948.83,189.50 965.36,187.12 965.70,175.68 947.20,178.11" fill="#a83d25"/>
<polygon points="850.78,238.27 863.44,226.20 851.40,218.04 837.02,231.39" fill="#a83d25"/>
<polygon points="902.34,212.04 918.10,205.43 913.58,198.65 895.70,206.00" fill="#a83d25"/>
<polygon points="959.77,131.92 981.39,131.29 978.14,118.64 956.13,118.97" fill="#a83d25"/>
<polygon points="887.38,220.35 902.34,212.04 895.70,206.00 878.68,215.28" fill="#a83d25"/>
<polygon points="810.91,236.19 823.19,220.90 810.63,207.83 797.32,224.10" fill="#a83d25"/>
<polygon points="932.93,120.58 956.13,118.97 952.19,109.07 929.19,110.32" fill="#a83d25"/>
<polygon points="918.10,205.43 933.91,200.54 931.49,193.22 913.58,198.65" fill="#a83d25"/>
<polygon points="855.14,126.72 880.07,118.68 878.71,111.43 854.66,118.83" fill="#b94f31"/>
<polygon points="984.11,160.59 1002.75,160.33 1003.36,145.75 983.45,145.74" fill="#a83d25"/>
<polygon points="826.04,245.41 837.02,231.39 823.19,220.90 810.91,236.19" fill="#a83d25"/>
<polygon points="797.32,224.10 810.63,207.83 800.59,193.46 786.61,210.34" fill="#a83d25"/>
<polygon points="880.07,118.68 905.02,113.34 902.79,106.64 878.71,111.43" fill="#b74d30"/>
<polygon points="983.45,145.74 1003.36,145.75 1002.16,131.57 981.39,131.29" fill="#a83d25"/>
<polygon points="874.06,230.12 887.38,220.35 878.68,215.28 863.44,226.20" fill="#a83d25"/>
<polygon points="831.31,137.55 855.14,126.72 854.66,118.83 831.70,128.98" fill="#bb5133"/>
<polygon points="933.91,200.54 949.23,197.16 948.83,189.50 931.49,193.22" fill="#a83d25"/>
<polygon points="965.36,187.12 981.15,185.73 983.32,174.37 965.70,175.68" fill="#a83d25"/>
<polygon points="983.32,174.37 1000.38,173.88 1002.75,160.33 984.11,160.59" fill="#a83d25"/>
<polygon points="905.02,113.34 929.19,110.32 926.14,104.08 902.79,106.64" fill="#b64c30"/>
<polygon points="794.05,179.19 812.42,163.38 809.79,150.96 791.63,166.42" fill="#aa3f27"/>
<polygon points="956.13,118.97 978.14,118.64 974.01,109.03 952.19,109.07" fill="#a83d25"/>
<polygon points="981.39,131.29 1002.16,131.57 999.25,119.16 978.14,118.64" fill="#a83d25"/>
<polygon points="841.23,250.87 850.78,238.27 837.02,231.39 826.04,245.41" fill="#a83d25"/>
<polygon points="786.61,210.34 800.59,193.46 794.05,179.19 779.82,196.25" fill="#a83d25"/>
<polygon points="949.23,197.16 963.83,194.95 965.36,187.12 948.83,189.50" fill="#a83d25"/>
<polygon points="863.12,240.87 874.06,230.12 863.44,226.20 850.78,238.27" fill="#a83d25"/>
<polygon points="809.79,150.96 831.31,137.55 831.70,128.98 811.00,141.66" fill="#be5435"/>
<polygon points="1002.75,160.33 1021.08,160.84 1022.88,146.53 1003.36,145.75" fill="#a83d25"/>
<polygon points="981.15,185.73 996.48,185.06 1000.38,173.88 983.32,174.37" fill="#a83d25"/>
<polygon points="1003.36,145.75 1022.88,146.53 1022.46,132.58 1002.16,131.57" fill="#a83d25"/>
<polygon points="929.19,110.32 952.19,109.07 948.35,103.19 926.14,104.08" fill="#b64c30"/>
<polygon points="1000.38,173.88 1017.24,174.11 1021.08,160.84 1002.75,160.33" fill="#a83d25"/>
<polygon points="906.98,213.41 920.87,207.59 918.10,205.43 902.34,212.04" fill="#a83d25"/>
<polygon points="893.85,220.76 906.98,213.41 902.34,212.04 887.38,220.35" fill="#a83d25"/>
<polygon points="802.57,251.57 810.91,236.19 797.32,224.10 788.22,240.60" fill="#a83d25"/>
<polygon points="920.87,207.59 934.83,203.30 933.91,200.54 918.10,205.43" fill="#a83d25"/>
<polygon points="963.83,194.95 977.80,193.58 981.15,185.73 965.36,187.12" fill="#a83d25"/>
<polygon points="818.67,259.40 826.04,245.41 810.91,236.19 802.57,251.57" fill="#a83d25"/>
<polygon points="978.14,118.64 999.25,119.16 994.93,109.76 974.01,109.03" fill="#a83d25"/>
<polygon points="854.66,118.83 878.71,111.43 879.45,108.75 856.84,115.41" fill="#ce6642"/>
<polygon points="1002.16,131.57 1022.46,132.58 1019.86,120.36 999.25,119.16" fill="#a83d25"/>
<polygon points="878.71,111.43 902.79,106.64 902.11,104.57 879.45,108.75" fill="#cd6441"/>
<polygon points="882.25,229.41 893.85,220.76 887.38,220.35 874.06,230.12" fill="#a83d25"/>
<polygon points="788.22,240.60 797.32,224.10 786.61,210.34 777.03,227.57" fill="#a83d25"/>
<polygon points="934.83,203.30 948.35,200.34 949.23,197.16 933.91,200.54" fill="#a83d25"/>
<polygon points="855.00,252.03 863.12,240.87 850.78,238.27 841.23,250.87" fill="#a83d25"/>
<polygon points="996.48,185.06 1011.72,185.05 1017.24,174.11 1000.38,173.88" fill="#a83d25"/>
<polygon points="952.19,109.07 974.01,109.03 969.42,103.40 948.35,103.19" fill="#b64c30"/>
<polygon points="831.70,128.98 854.66,118.83 856.84,115.41 835.30,124.69" fill="#d06843"/>
<polygon points="779.82,196.25 794.05,179.19 791.63,166.42 777.62,183.21" fill="#ae442a"/>
<polygon points="791.63,166.42 809.79,150.96 811.00,141.66 793.59,156.40" fill="#c15838"/>
<polygon points="1021.08,160.84 1039.39,162.25 1042.30,148.19 1022.88,146.53" fill="#a83d25"/>
<polygon points="902.79,106.64 926.14,104.08 924.07,102.47 902.11,104.57" fill="#cc6440"/>
<polygon points="834.93,263.34 841.23,250.87 826.04,245.41 818.67,259.40" fill="#a83d25"/>
<polygon points="1017.24,174.11 1034.16,175.22 1039.39,162.25 1021.08,160.84" fill="#a83d25"/>
<polygon points="1022.88,146.53 1042.30,148.19 1042.60,134.43 1022.46,132.58" fill="#a83d25"/>
<polygon points="977.80,193.58 991.44,192.80 996.48,185.06 981.15,185.73" fill="#a83d25"/>
<polygon points="948.35,200.34 961.25,198.39 963.83,194.95 949.23,197.16" fill="#a83d25"/>
<polygon points="872.84,238.93 882.25,229.41 874.06,230.12 863.12,240.87" fill="#a83d25"/>
<polygon points="777.03,227.57 786.61,210.34 779.82,196.25 770.09,213.77" fill="#a83d25"/>
<polygon points="811.00,141.66 831.70,128.98 835.30,124.69 815.93,136.41" fill="#d36b45"/>
<polygon points="999.25,119.16 1019.86,120.36 1015.33,111.06 994.93,109.76" fill="#a83d25"/>
<polygon points="926.14,104.08 948.35,103.19 944.97,101.91 924.07,102.47" fill="#cc6440"/>
<polygon points="1011.72,185.05 1027.12,185.84 1034.16,175.22 1017.24,174.11" fill="#a83d25"/>
<polygon points="1022.46,132.58 1042.60,134.43 1040.25,122.31 1019.86,120.36" fill="#a83d25"/>
<polygon points="974.01,109.03 994.93,109.76 989.62,104.27 969.42,103.40" fill="#b74d30"/>
<polygon points="991.44,192.80 1005.08,192.57 1011.72,185.05 996.48,185.06" fill="#a83d25"/>
<polygon points="961.25,198.39 973.62,197.12 977.80,193.58 963.83,194.95" fill="#a83d25"/>
<polygon points="909.16,209.98 921.61,204.91 920.87,207.59 906.98,213.41" fill="#a83d25"/>
<polygon points="1039.39,162.25 1057.69,164.89 1061.63,151.07 1042.30,148.19" fill="#a83d25"/>
<polygon points="849.78,263.00 855.00,252.03 841.23,250.87 834.93,263.34" fill="#a83d25"/>
<polygon points="897.45,216.47 909.16,209.98 906.98,213.41 893.85,220.76" fill="#a83d25"/>
<polygon points="1034.16,175.22 1051.14,177.54 1057.69,164.89 1039.39,162.25" fill="#a83d25"/>
<polygon points="921.61,204.91 934.14,201.23 934.83,203.30 920.87,207.59" fill="#a83d25"/>
<polygon points="797.98,266.41 802.57,251.57 788.22,240.60 783.17,256.64" fill="#a83d25"/>
<polygon points="814.67,272.80 818.67,259.40 802.57,251.57 797.98,266.41" fill="#a83d25"/>
<polygon points="866.00,248.78 872.84,238.93 863.12,240.87 855.00,252.03" fill="#a83d25"/>
<polygon points="1042.30,148.19 1061.63,151.07 1062.59,137.43 1042.60,134.43" fill="#a83d25"/>
<polygon points="777.62,183.21 791.63,166.42 793.59,156.40 780.22,172.49" fill="#c55c3b"/>
<polygon points="948.35,103.19 969.42,103.40 964.80,102.31 944.97,101.91" fill="#cd6441"/>
<polygon points="856.84,115.41 879.45,108.75 882.22,110.90 861.49,116.78" fill="#e0794f"/>
<polygon points="879.45,108.75 902.11,104.57 903.02,107.33 882.22,110.90" fill="#df784f"/>
<polygon points="887.18,224.16 897.45,216.47 893.85,220.76 882.25,229.41" fill="#a83d25"/>
<polygon points="934.14,201.23 946.28,198.74 948.35,200.34 934.83,203.30" fill="#a83d25"/>
<polygon points="973.62,197.12 985.75,196.32 991.44,192.80 977.80,193.58" fill="#a83d25"/>
<polygon points="793.59,156.40 811.00,141.66 815.93,136.41 799.73,150.11" fill="#d66e47"/>
<polygon points="1005.08,192.57 1018.94,193.07 1027.12,185.84 1011.72,185.05" fill="#a83d25"/>
<polygon points="1027.12,185.84 1042.63,187.79 1051.14,177.54 1034.16,175.22" fill="#a83d25"/>
<polygon points="783.17,256.64 788.22,240.60 777.03,227.57 771.70,244.45" fill="#a83d25"/>
<polygon points="831.62,275.19 834.93,263.34 818.67,259.40 814.67,272.80" fill="#a83d25"/>
<polygon points="1019.86,120.36 1040.25,122.31 1035.50,113.01 1015.33,111.06" fill="#a83d25"/>
<polygon points="835.30,124.69 856.84,115.41 861.49,116.78 841.77,125.10" fill="#e27a51"/>
<polygon points="770.09,213.77 779.82,196.25 777.62,183.21 768.07,200.54" fill="#b2482c"/>
<polygon points="902.11,104.57 924.07,102.47 923.19,105.66 903.02,107.33" fill="#df784e"/>
<polygon points="994.93,109.76 1015.33,111.06 1009.32,105.60 989.62,104.27" fill="#b74d30"/>
<polygon points="946.28,198.74 957.87,197.11 961.25,198.39 948.35,200.34" fill="#a83d25"/>
<polygon points="1042.60,134.43 1062.59,137.43 1060.46,125.32 1040.25,122.31" fill="#a83d25"/>
<polygon points="878.97,232.64 887.18,224.16 882.25,229.41 872.84,238.93" fill="#a83d25"/>
<polygon points="985.75,196.32 997.96,195.95 1005.08,192.57 991.44,192.80" fill="#a83d25"/>
<polygon points="969.42,103.40 989.62,104.27 983.83,103.24 964.80,102.31" fill="#cd6541"/>
<polygon points="924.07,102.47 944.97,101.91 942.39,105.35 923.19,105.66" fill="#df784f"/>
<polygon points="1057.69,164.89 1075.61,169.21 1080.53,155.61 1061.63,151.07" fill="#a83d25"/>
<polygon points="1051.14,177.54 1067.80,181.51 1075.61,169.21 1057.69,164.89" fill="#a83d25"/>
<polygon points="815.93,136.41 835.30,124.69 841.77,125.10 824.12,135.70" fill="#e47c52"/>
<polygon points="861.76,258.41 866.00,248.78 855.00,252.03 849.78,263.00" fill="#a83d25"/>
<polygon points="1018.94,193.07 1032.99,194.63 1042.63,187.79 1027.12,185.84" fill="#a83d25"/>
<polygon points="957.87,197.11 969.00,196.03 973.62,197.12 961.25,198.39" fill="#a83d25"/>
<polygon points="771.70,244.45 777.03,227.57 770.09,213.77 764.70,231.03" fill="#a83d25"/>
<polygon points="847.17,273.33 849.78,263.00 834.93,263.34 831.62,275.19" fill="#a83d25"/>
<polygon points="1061.63,151.07 1080.53,155.61 1082.10,142.06 1062.59,137.43" fill="#a83d25"/>
<polygon points="1042.63,187.79 1057.88,191.32 1067.80,181.51 1051.14,177.54" fill="#a83d25"/>
<polygon points="908.68,202.09 920.26,197.65 921.61,204.91 909.16,209.98" fill="#a83d25"/>
<polygon points="997.96,195.95 1010.45,196.20 1018.94,193.07 1005.08,192.57" fill="#a83d25"/>
<polygon points="1015.33,111.06 1035.50,113.01 1028.80,107.44 1009.32,105.60" fill="#b74d30"/>
<polygon points="897.83,207.89 908.68,202.09 909.16,209.98 897.45,216.47" fill="#a83d25"/>
<polygon points="920.26,197.65 931.92,194.52 934.14,201.23 921.61,204.91" fill="#a83d25"/>
<polygon points="1040.25,122.31 1060.46,125.32 1055.46,115.91 1035.50,113.01" fill="#a83d25"/>
<polygon points="873.14,241.43 878.97,232.64 872.84,238.93 866.00,248.78" fill="#a83d25"/>
<polygon points="944.97,101.91 964.80,102.31 960.62,105.86 942.39,105.35" fill="#e0784f"/>
<polygon points="969.00,196.03 979.96,195.29 985.75,196.32 973.62,197.12" fill="#a83d25"/>
<polygon points="780.22,172.49 793.59,156.40 799.73,150.11 787.37,165.14" fill="#d9714a"/>
<polygon points="813.51,285.23 814.67,272.80 797.98,266.41 796.59,280.30" fill="#a83d25"/>
<polygon points="861.49,116.78 882.22,110.90 886.75,117.68 868.13,122.81" fill="#ed8659"/>
<polygon points="882.22,110.90 903.02,107.33 905.45,114.65 886.75,117.68" fill="#ed8659"/>
<polygon points="768.07,200.54 777.62,183.21 780.22,172.49 771.18,189.17" fill="#c85f3d"/>
<polygon points="931.92,194.52 943.23,192.50 946.28,198.74 934.14,201.23" fill="#a83d25"/>
<polygon points="989.62,104.27 1009.32,105.60 1002.41,104.50 983.83,103.24" fill="#ce6541"/>
<polygon points="888.39,214.86 897.83,207.89 897.45,216.47 887.18,224.16" fill="#a83d25"/>
<polygon points="796.59,280.30 797.98,266.41 783.17,256.64 781.62,271.76" fill="#a83d25"/>
<polygon points="799.73,150.11 815.93,136.41 824.12,135.70 809.44,148.17" fill="#e67f53"/>
<polygon points="830.74,286.09 831.62,275.19 814.67,272.80 813.51,285.23" fill="#a83d25"/>
<polygon points="841.77,125.10 861.49,116.78 868.13,122.81 850.47,130.17" fill="#ee8759"/>
<polygon points="1062.59,137.43 1082.10,142.06 1080.14,129.88 1060.46,125.32" fill="#a83d25"/>
<polygon points="1032.99,194.63 1046.82,197.68 1057.88,191.32 1042.63,187.79" fill="#a83d25"/>
<polygon points="903.02,107.33 923.19,105.66 923.59,113.32 905.45,114.65" fill="#ed8659"/>
<polygon points="1010.45,196.20 1023.16,197.39 1032.99,194.63 1018.94,193.07" fill="#a83d25"/>
<polygon points="979.96,195.29 991.05,194.86 997.96,195.95 985.75,196.32" fill="#a83d25"/>
<polygon points="943.23,192.50 954.03,191.23 957.87,197.11 946.28,198.74" fill="#a83d25"/>
<polygon points="1067.80,181.51 1083.45,187.53 1092.44,175.63 1075.61,169.21" fill="#a83d25"/>
<polygon points="764.70,231.03 770.09,213.77 768.07,200.54 762.84,217.70" fill="#b54b2f"/>
<polygon points="859.79,267.43 861.76,258.41 849.78,263.00 847.17,273.33" fill="#a83d25"/>
<polygon points="964.80,102.31 983.83,103.24 978.14,106.76 960.62,105.86" fill="#e0794f"/>
<polygon points="781.62,271.76 783.17,256.64 771.70,244.45 770.09,260.46" fill="#a83d25"/>
<polygon points="1075.61,169.21 1092.44,175.63 1098.28,162.27 1080.53,155.61" fill="#a83d25"/>
<polygon points="880.93,222.63 888.39,214.86 887.18,224.16 878.97,232.64" fill="#a83d25"/>
<polygon points="923.19,105.66 942.39,105.35 940.86,113.17 923.59,113.32" fill="#ed8659"/>
<polygon points="1057.88,191.32 1072.18,196.82 1083.45,187.53 1067.80,181.51" fill="#a83d25"/>
<polygon points="869.69,250.02 873.14,241.43 866.00,248.78 861.76,258.41" fill="#a83d25"/>
<polygon points="954.03,191.23 964.41,190.40 969.00,196.03 957.87,197.11" fill="#a83d25"/>
<polygon points="824.12,135.70 841.77,125.10 850.47,130.17 834.74,139.62" fill="#ee885a"/>
<polygon points="846.59,282.78 847.17,273.33 831.62,275.19 830.74,286.09" fill="#a83d25"/>
<polygon points="1035.50,113.01 1055.46,115.91 1048.07,110.13 1028.80,107.44" fill="#b74d30"/>
<polygon points="991.05,194.86 1002.46,194.91 1010.45,196.20 997.96,195.95" fill="#a83d25"/>
<polygon points="1009.32,105.60 1028.80,107.44 1020.81,106.16 1002.41,104.50" fill="#ce6541"/>
<polygon points="1080.53,155.61 1098.28,162.27 1100.40,148.77 1082.10,142.06" fill="#a83d25"/>
<polygon points="905.58,190.52 916.93,186.53 920.26,197.65 908.68,202.09" fill="#ad4329"/>
<polygon points="916.93,186.53 928.38,183.85 931.92,194.52 920.26,197.65" fill="#af452a"/>
<polygon points="1060.46,125.32 1080.14,129.88 1074.87,120.25 1055.46,115.91" fill="#a83d25"/>
<polygon points="1023.16,197.39 1035.69,199.96 1046.82,197.68 1032.99,194.63" fill="#a83d25"/>
<polygon points="894.96,195.88 905.58,190.52 908.68,202.09 897.83,207.89" fill="#ab4027"/>
<polygon points="942.39,105.35 960.62,105.86 957.27,113.70 940.86,113.17" fill="#ed8759"/>
<polygon points="964.41,190.40 974.64,189.80 979.96,195.29 969.00,196.03" fill="#a83d25"/>
<polygon points="1046.82,197.68 1059.75,202.59 1072.18,196.82 1057.88,191.32" fill="#a83d25"/>
<polygon points="868.13,122.81 886.75,117.68 892.58,128.43 876.11,132.91" fill="#f38d5d"/>
<polygon points="886.75,117.68 905.45,114.65 909.15,125.81 892.58,128.43" fill="#f38d5e"/>
<polygon points="983.83,103.24 1002.41,104.50 995.29,107.88 978.14,106.76" fill="#e17950"/>
<polygon points="928.38,183.85 939.49,182.23 943.23,192.50 931.92,194.52" fill="#b0462b"/>
<polygon points="875.74,230.71 880.93,222.63 878.97,232.64 873.14,241.43" fill="#a83d25"/>
<polygon points="770.09,260.46 771.70,244.45 764.70,231.03 763.11,247.51" fill="#a83d25"/>
<polygon points="787.37,165.14 799.73,150.11 809.44,148.17 798.36,161.89" fill="#e88155"/>
<polygon points="771.18,189.17 780.22,172.49 787.37,165.14 779.11,180.78" fill="#db744c"/>
<polygon points="1002.46,194.91 1014.11,195.81 1023.16,197.39 1010.45,196.20" fill="#a83d25"/>
<polygon points="885.76,202.44 894.96,195.88 897.83,207.89 888.39,214.86" fill="#a83d25"/>
<polygon points="905.45,114.65 923.59,113.32 925.22,124.71 909.15,125.81" fill="#f38d5e"/>
<polygon points="850.47,130.17 868.13,122.81 876.11,132.91 860.55,139.41" fill="#f28c5d"/>
<polygon points="939.49,182.23 950.09,181.33 954.03,191.23 943.23,192.50" fill="#b0462b"/>
<polygon points="974.64,189.80 985.04,189.39 991.05,194.86 979.96,195.29" fill="#a83d25"/>
<polygon points="809.44,148.17 824.12,135.70 834.74,139.62 821.78,150.77" fill="#ef895b"/>
<polygon points="814.46,296.61 813.51,285.23 796.59,280.30 797.66,293.08" fill="#a83d25"/>
<polygon points="1082.10,142.06 1100.40,148.77 1098.59,136.45 1080.14,129.88" fill="#a83d25"/>
<polygon points="859.51,275.62 859.79,267.43 847.17,273.33 846.59,282.78" fill="#a83d25"/>
<polygon points="831.58,296.01 830.74,286.09 813.51,285.23 814.46,296.61" fill="#a83d25"/>
<polygon points="762.84,217.70 768.07,200.54 771.18,189.17 766.31,205.75" fill="#cb6340"/>
<polygon points="960.62,105.86 978.14,106.76 973.09,114.50 957.27,113.70" fill="#ee875a"/>
<polygon points="868.25,258.04 869.69,250.02 861.76,258.41 859.79,267.43" fill="#a83d25"/>
<polygon points="923.59,113.32 940.86,113.17 940.52,124.62 925.22,124.71" fill="#f48e5e"/>
<polygon points="1083.45,187.53 1097.14,195.86 1107.24,184.43 1092.44,175.63" fill="#a83d25"/>
<polygon points="797.66,293.08 796.59,280.30 781.62,271.76 782.84,285.77" fill="#a83d25"/>
<polygon points="1072.18,196.82 1084.61,204.52 1097.14,195.86 1083.45,187.53" fill="#a83d25"/>
<polygon points="1035.69,199.96 1047.36,204.26 1059.75,202.59 1046.82,197.68" fill="#a83d25"/>
<polygon points="950.09,181.33 960.28,180.80 964.41,190.40 954.03,191.23" fill="#b0462b"/>
<polygon points="1028.80,107.44 1048.07,110.13 1039.02,108.55 1020.81,106.16" fill="#ce6541"/>
<polygon points="878.52,209.86 885.76,202.44 888.39,214.86 880.93,222.63" fill="#a83d25"/>
<polygon points="834.74,139.62 850.47,130.17 860.55,139.41 846.78,147.77" fill="#f28c5d"/>
<polygon points="900.16,176.39 911.96,172.63 916.93,186.53 905.58,190.52" fill="#c45b3a"/>
<polygon points="985.04,189.39 995.76,189.35 1002.46,194.91 991.05,194.86" fill="#a83d25"/>
<polygon points="911.96,172.63 923.87,170.24 928.38,183.85 916.93,186.53" fill="#c65c3b"/>
<polygon points="1092.44,175.63 1107.24,184.43 1113.93,171.35 1098.28,162.27" fill="#a83d25"/>
<polygon points="1055.46,115.91 1074.87,120.25 1066.79,114.13 1048.07,110.13" fill="#b74d31"/>
<polygon points="1014.11,195.81 1025.59,197.94 1035.69,199.96 1023.16,197.39" fill="#a83d25"/>
<polygon points="1002.41,104.50 1020.81,106.16 1012.31,109.29 995.29,107.88" fill="#e17950"/>
<polygon points="889.12,181.59 900.16,176.39 905.58,190.52 894.96,195.88" fill="#c25838"/>
<polygon points="872.80,238.65 875.74,230.71 873.14,241.43 869.69,250.02" fill="#a83d25"/>
<polygon points="892.58,128.43 909.15,125.81 913.76,139.73 899.16,142.09" fill="#f28c5d"/>
<polygon points="876.11,132.91 892.58,128.43 899.16,142.09 884.67,146.10" fill="#f18b5c"/>
<polygon points="847.35,291.33 846.59,282.78 830.74,286.09 831.58,296.01" fill="#a83d25"/>
<polygon points="923.87,170.24 935.43,168.95 939.49,182.23 928.38,183.85" fill="#c65d3c"/>
<polygon points="940.86,113.17 957.27,113.70 955.10,125.06 940.52,124.62" fill="#f48e5e"/>
<polygon points="1059.75,202.59 1070.89,209.56 1084.61,204.52 1072.18,196.82" fill="#a83d25"/>
<polygon points="960.28,180.80 970.32,180.40 974.64,189.80 964.41,190.40" fill="#b0462b"/>
<polygon points="909.15,125.81 925.22,124.71 927.93,138.71 913.76,139.73" fill="#f28c5d"/>
<polygon points="860.55,139.41 876.11,132.91 884.67,146.10 871.03,151.91" fill="#f08a5b"/>
<polygon points="763.11,247.51 764.70,231.03 762.84,217.70 761.37,234.16" fill="#b84e31"/>
<polygon points="978.14,106.76 995.29,107.88 988.64,115.40 973.09,114.50" fill="#ee875a"/>
<polygon points="782.84,285.77 781.62,271.76 770.09,260.46 771.44,275.38" fill="#a83d25"/>
<polygon points="879.53,188.11 889.12,181.59 894.96,195.88 885.76,202.44" fill="#be5536"/>
<polygon points="935.43,168.95 946.46,168.38 950.09,181.33 939.49,182.23" fill="#c75e3c"/>
<polygon points="1080.14,129.88 1098.59,136.45 1093.03,126.51 1074.87,120.25" fill="#a83d25"/>
<polygon points="995.76,189.35 1006.72,190.03 1014.11,195.81 1002.46,194.91" fill="#a83d25"/>
<polygon points="892.96,161.08 905.84,157.32 911.96,172.63 900.16,176.39" fill="#d87049"/>
<polygon points="1098.28,162.27 1113.93,171.35 1116.55,157.89 1100.40,148.77" fill="#a83d25"/>
<polygon points="905.84,157.32 918.83,155.04 923.87,170.24 911.96,172.63" fill="#d9724a"/>
<polygon points="884.67,146.10 899.16,142.09 905.84,157.32 892.96,161.08" fill="#e88155"/>
<polygon points="899.16,142.09 913.76,139.73 918.83,155.04 905.84,157.32" fill="#e98256"/>
<polygon points="925.22,124.71 940.52,124.62 941.42,138.56 927.93,138.71" fill="#f38d5d"/>
<polygon points="873.54,217.67 878.52,209.86 880.93,222.63 875.74,230.71" fill="#a83d25"/>
<polygon points="970.32,180.40 980.51,180.09 985.04,189.39 974.64,189.80" fill="#b0462b"/>
<polygon points="798.36,161.89 809.44,148.17 821.78,150.77 812.13,163.05" fill="#f08a5c"/>
<polygon points="880.87,166.44 892.96,161.08 900.16,176.39 889.12,181.59" fill="#d66e48"/>
<polygon points="918.83,155.04 931.45,153.96 935.43,168.95 923.87,170.24" fill="#da724b"/>
<polygon points="821.78,150.77 834.74,139.62 846.78,147.77 835.54,157.65" fill="#f28c5d"/>
<polygon points="957.27,113.70 973.09,114.50 969.20,125.68 955.10,125.06" fill="#f48e5e"/>
<polygon points="779.11,180.78 787.37,165.14 798.36,161.89 791.09,176.18" fill="#ea8356"/>
<polygon points="913.76,139.73 927.93,138.71 931.45,153.96 918.83,155.04" fill="#ea8356"/>
<polygon points="871.03,151.91 884.67,146.10 892.96,161.08 880.87,166.44" fill="#e67f54"/>
<polygon points="868.23,265.33 868.25,258.04 859.79,267.43 859.51,275.62" fill="#a83d25"/>
<polygon points="946.46,168.38 957.03,168.14 960.28,180.80 950.09,181.33" fill="#c75e3c"/>
<polygon points="846.78,147.77 860.55,139.41 871.03,151.91 859.04,159.37" fill="#ef885a"/>
<polygon points="1025.59,197.94 1036.24,201.68 1047.36,204.26 1035.69,199.96" fill="#a83d25"/>
<polygon points="860.22,283.04 859.51,275.62 846.59,282.78 847.35,291.33" fill="#a83d25"/>
<polygon points="1047.36,204.26 1057.31,210.49 1070.89,209.56 1059.75,202.59" fill="#a83d25"/>
<polygon points="931.45,153.96 943.47,153.64 946.46,168.38 935.43,168.95" fill="#db734b"/>
<polygon points="871.97,195.59 879.53,188.11 885.76,202.44 878.52,209.86" fill="#ba5032"/>
<polygon points="940.52,124.62 955.10,125.06 954.31,138.85 941.42,138.56" fill="#f38d5e"/>
<polygon points="1020.81,106.16 1039.02,108.55 1029.19,111.31 1012.31,109.29" fill="#e17950"/>
<polygon points="927.93,138.71 941.42,138.56 943.47,153.64 931.45,153.96" fill="#ea8357"/>
<polygon points="766.31,205.75 771.18,189.17 779.11,180.78 774.76,196.37" fill="#de764e"/>
<polygon points="871.72,246.10 872.80,238.65 869.69,250.02 868.25,258.04" fill="#a83d25"/>
<polygon points="870.32,173.27 880.87,166.44 889.12,181.59 879.53,188.11" fill="#d36b46"/>
<polygon points="980.51,180.09 991.00,180.05 995.76,189.35 985.04,189.39" fill="#b0462b"/>
<polygon points="1048.07,110.13 1066.79,114.13 1056.69,112.12 1039.02,108.55" fill="#ce6541"/>
<polygon points="1006.72,190.03 1017.51,191.82 1025.59,197.94 1014.11,195.81" fill="#a83d25"/>
<polygon points="995.29,107.88 1012.31,109.29 1004.14,116.51 988.64,115.40" fill="#ee875a"/>
<polygon points="957.03,168.14 967.42,167.99 970.32,180.40 960.28,180.80" fill="#c75e3d"/>
<polygon points="859.04,159.37 871.03,151.91 880.87,166.44 870.32,173.27" fill="#e47d52"/>
<polygon points="833.48,305.11 831.58,296.01 814.46,296.61 816.82,307.05" fill="#a83d25"/>
<polygon points="1100.40,148.77 1116.55,157.89 1114.84,145.38 1098.59,136.45" fill="#a83d25"/>
<polygon points="1084.61,204.52 1094.26,214.39 1107.92,206.49 1097.14,195.86" fill="#a83d25"/>
<polygon points="771.44,275.38 770.09,260.46 763.11,247.51 764.57,262.95" fill="#a83d25"/>
<polygon points="816.82,307.05 814.46,296.61 797.66,293.08 800.48,304.84" fill="#a83d25"/>
<polygon points="943.47,153.64 954.97,153.69 957.03,168.14 946.46,168.38" fill="#db744c"/>
<polygon points="973.09,114.50 988.64,115.40 983.13,126.34 969.20,125.68" fill="#f48e5f"/>
<polygon points="1097.14,195.86 1107.92,206.49 1119.01,195.64 1107.24,184.43" fill="#a83d25"/>
<polygon points="941.42,138.56 954.31,138.85 954.97,153.69 943.47,153.64" fill="#ea8457"/>
<polygon points="870.78,225.42 873.54,217.67 875.74,230.71 872.80,238.65" fill="#a83d25"/>
<polygon points="955.10,125.06 969.20,125.68 966.83,139.23 954.31,138.85" fill="#f38d5e"/>
<polygon points="1074.87,120.25 1093.03,126.51 1084.25,119.93 1066.79,114.13" fill="#b84e31"/>
<polygon points="848.82,299.21 847.35,291.33 831.58,296.01 833.48,305.11" fill="#a83d25"/>
<polygon points="1070.89,209.56 1079.36,218.55 1094.26,214.39 1084.61,204.52" fill="#a83d25"/>
<polygon points="835.54,157.65 846.78,147.77 859.04,159.37 849.38,168.14" fill="#ed8659"/>
<polygon points="967.42,167.99 977.91,167.87 980.51,180.09 970.32,180.40" fill="#c75e3d"/>
<polygon points="991.00,180.05 1001.71,180.62 1006.72,190.03 995.76,189.35" fill="#b0462b"/>
<polygon points="761.37,234.16 762.84,217.70 766.31,205.75 765.05,221.74" fill="#ce6542"/>
<polygon points="861.93,181.21 870.32,173.27 879.53,188.11 871.97,195.59" fill="#d06743"/>
<polygon points="954.97,153.69 966.21,153.81 967.42,167.99 957.03,168.14" fill="#db744c"/>
<polygon points="1107.24,184.43 1119.01,195.64 1126.44,182.90 1113.93,171.35" fill="#a83d25"/>
<polygon points="800.48,304.84 797.66,293.08 782.84,285.77 786.06,298.69" fill="#a83d25"/>
<polygon points="866.75,203.58 871.97,195.59 878.52,209.86 873.54,217.67" fill="#b64b2f"/>
<polygon points="1036.24,201.68 1045.20,207.21 1057.31,210.49 1047.36,204.26" fill="#a83d25"/>
<polygon points="812.13,163.05 821.78,150.77 835.54,157.65 827.32,168.51" fill="#f28b5d"/>
<polygon points="954.31,138.85 966.83,139.23 966.21,153.81 954.97,153.69" fill="#eb8457"/>
<polygon points="849.38,168.14 859.04,159.37 870.32,173.27 861.93,181.21" fill="#e17a50"/>
<polygon points="1017.51,191.82 1027.46,195.10 1036.24,201.68 1025.59,197.94" fill="#a83d25"/>
<polygon points="868.95,271.95 868.23,265.33 859.51,275.62 860.22,283.04" fill="#a83d25"/>
<polygon points="977.91,167.87 988.66,167.93 991.00,180.05 980.51,180.09" fill="#c75e3d"/>
<polygon points="969.20,125.68 983.13,126.34 979.28,139.61 966.83,139.23" fill="#f38d5e"/>
<polygon points="988.64,115.40 1004.14,116.51 997.09,127.13 983.13,126.34" fill="#f48e5f"/>
<polygon points="791.09,176.18 798.36,161.89 812.13,163.05 805.94,175.84" fill="#f18b5c"/>
<polygon points="1012.31,109.29 1029.19,111.31 1019.55,118.15 1004.14,116.51" fill="#ee875a"/>
<polygon points="871.90,252.90 871.72,246.10 868.25,258.04 868.23,265.33" fill="#a83d25"/>
<polygon points="1057.31,210.49 1064.68,218.58 1079.36,218.55 1070.89,209.56" fill="#a83d25"/>
<polygon points="966.21,153.81 977.48,153.92 977.91,167.87 967.42,167.99" fill="#dc744c"/>
<polygon points="861.35,289.92 860.22,283.04 847.35,291.33 848.82,299.21" fill="#a83d25"/>
<polygon points="1039.02,108.55 1056.69,112.12 1045.56,114.40 1029.19,111.31" fill="#e17950"/>
<polygon points="1001.71,180.62 1012.23,182.20 1017.51,191.82 1006.72,190.03" fill="#b0462b"/>
<polygon points="1098.59,136.45 1114.84,145.38 1108.97,135.04 1093.03,126.51" fill="#a83d25"/>
<polygon points="966.83,139.23 979.28,139.61 977.48,153.92 966.21,153.81" fill="#eb8457"/>
<polygon points="1113.93,171.35 1126.44,182.90 1129.48,169.51 1116.55,157.89" fill="#a83d25"/>
<polygon points="774.76,196.37 779.11,180.78 791.09,176.18 787.39,190.46" fill="#eb8558"/>
<polygon points="869.86,232.76 870.78,225.42 872.80,238.65 871.72,246.10" fill="#a83d25"/>
<polygon points="764.57,262.95 763.11,247.51 761.37,234.16 762.92,249.67" fill="#bb5133"/>
<polygon points="786.06,298.69 782.84,285.77 771.44,275.38 774.96,289.21" fill="#a83d25"/>
<polygon points="856.04,189.81 861.93,181.21 871.97,195.59 866.75,203.58" fill="#cc6340"/>
<polygon points="988.66,167.93 999.59,168.50 1001.71,180.62 991.00,180.05" fill="#c75e3c"/>
<polygon points="827.32,168.51 835.54,157.65 849.38,168.14 842.45,177.73" fill="#eb8558"/>
<polygon points="977.48,153.92 988.96,154.16 988.66,167.93 977.91,167.87" fill="#db744c"/>
<polygon points="1066.79,114.13 1084.25,119.93 1073.13,117.35 1056.69,112.12" fill="#ce6642"/>
<polygon points="983.13,126.34 997.09,127.13 991.86,140.11 979.28,139.61" fill="#f38d5e"/>
<polygon points="863.84,211.61 866.75,203.58 873.54,217.67 870.78,225.42" fill="#b1472c"/>
<polygon points="842.45,177.73 849.38,168.14 861.93,181.21 856.04,189.81" fill="#de774e"/>
<polygon points="1027.46,195.10 1035.75,200.05 1045.20,207.21 1036.24,201.68" fill="#a83d25"/>
<polygon points="979.28,139.61 991.86,140.11 988.96,154.16 977.48,153.92" fill="#eb8457"/>
<polygon points="1004.14,116.51 1019.55,118.15 1011.04,128.40 997.09,127.13" fill="#f48e5f"/>
<polygon points="1045.20,207.21 1051.67,214.48 1064.68,218.58 1057.31,210.49" fill="#a83d25"/>
<polygon points="1094.26,214.39 1100.35,226.12 1114.97,219.14 1107.92,206.49" fill="#a83d25"/>
<polygon points="836.02,313.71 833.48,305.11 816.82,307.05 820.13,316.85" fill="#a83d25"/>
<polygon points="765.05,221.74 766.31,205.75 774.76,196.37 773.77,211.44" fill="#e0794f"/>
<polygon points="1012.23,182.20 1021.90,185.16 1027.46,195.10 1017.51,191.82" fill="#af452a"/>
<polygon points="1079.36,218.55 1084.45,229.25 1100.35,226.12 1094.26,214.39" fill="#a83d25"/>
<polygon points="850.65,306.73 848.82,299.21 833.48,305.11 836.02,313.71" fill="#a83d25"/>
<polygon points="869.84,278.15 868.95,271.95 860.22,283.04 861.35,289.92" fill="#a83d25"/>
<polygon points="805.94,175.84 812.13,163.05 827.32,168.51 822.20,179.78" fill="#f18b5c"/>
<polygon points="872.67,259.14 871.90,252.90 868.23,265.33 868.95,271.95" fill="#a83d25"/>
<polygon points="1107.92,206.49 1114.97,219.14 1126.89,209.00 1119.01,195.64" fill="#a83d25"/>
<polygon points="1029.19,111.31 1045.56,114.40 1034.50,120.75 1019.55,118.15" fill="#ee875a"/>
<polygon points="820.13,316.85 816.82,307.05 800.48,304.84 804.51,315.83" fill="#a83d25"/>
<polygon points="999.59,168.50 1010.28,170.01 1012.23,182.20 1001.71,180.62" fill="#c75e3c"/>
<polygon points="988.96,154.16 1000.54,154.87 999.59,168.50 988.66,167.93" fill="#db734c"/>
<polygon points="1116.55,157.89 1129.48,169.51 1127.85,156.78 1114.84,145.38" fill="#a83d25"/>
<polygon points="1093.03,126.51 1108.97,135.04 1099.52,127.88 1084.25,119.93" fill="#b95032"/>
<polygon points="997.09,127.13 1011.04,128.40 1004.49,141.05 991.86,140.11" fill="#f38d5e"/>
<polygon points="870.16,239.56 869.86,232.76 871.72,246.10 871.90,252.90" fill="#a83d25"/>
<polygon points="1064.68,218.58 1068.84,228.24 1084.45,229.25 1079.36,218.55" fill="#a83d25"/>
<polygon points="862.56,296.59 861.35,289.92 848.82,299.21 850.65,306.73" fill="#a83d25"/>
<polygon points="774.96,289.21 771.44,275.38 764.57,262.95 768.28,277.32" fill="#a83d25"/>
<polygon points="852.64,198.59 856.04,189.81 866.75,203.58 863.84,211.61" fill="#c85f3d"/>
<polygon points="991.86,140.11 1004.49,141.05 1000.54,154.87 988.96,154.16" fill="#ea8457"/>
<polygon points="787.39,190.46 791.09,176.18 805.94,175.84 802.93,188.61" fill="#f28c5d"/>
<polygon points="862.85,219.34 863.84,211.61 870.78,225.42 869.86,232.76" fill="#ae442a"/>
<polygon points="1056.69,112.12 1073.13,117.35 1060.74,119.02 1045.56,114.40" fill="#e17950"/>
<polygon points="762.92,249.67 761.37,234.16 765.05,221.74 766.63,236.87" fill="#d06843"/>
<polygon points="822.20,179.78 827.32,168.51 842.45,177.73 838.30,187.62" fill="#ea8357"/>
<polygon points="1119.01,195.64 1126.89,209.00 1134.93,196.69 1126.44,182.90" fill="#a83d25"/>
<polygon points="804.51,315.83 800.48,304.84 786.06,298.69 790.71,310.76" fill="#a83d25"/>
<polygon points="838.30,187.62 842.45,177.73 856.04,189.81 852.64,198.59" fill="#dc744c"/>
<polygon points="1019.55,118.15 1034.50,120.75 1024.58,130.56 1011.04,128.40" fill="#f48e5e"/>
<polygon points="1000.54,154.87 1011.85,156.46 1010.28,170.01 999.59,168.50" fill="#db734b"/>
<polygon points="1035.75,200.05 1041.58,206.63 1051.67,214.48 1045.20,207.21" fill="#a83d25"/>
<polygon points="1021.90,185.16 1029.89,189.71 1035.75,200.05 1027.46,195.10" fill="#ad4229"/>
<polygon points="1010.28,170.01 1020.08,172.84 1021.90,185.16 1012.23,182.20" fill="#c65d3c"/>
<polygon points="873.46,265.07 872.67,259.14 868.95,271.95 869.84,278.15" fill="#a83d25"/>
<polygon points="1051.67,214.48 1055.03,223.16 1068.84,228.24 1064.68,218.58" fill="#a83d25"/>
<polygon points="870.61,284.28 869.84,278.15 861.35,289.92 862.56,296.59" fill="#a83d25"/>
<polygon points="773.77,211.44 774.76,196.37 787.39,190.46 786.69,204.29" fill="#ed8659"/>
<polygon points="1011.04,128.40 1024.58,130.56 1016.77,142.87 1004.49,141.05" fill="#f38d5d"/>
<polygon points="1004.49,141.05 1016.77,142.87 1011.85,156.46 1000.54,154.87" fill="#ea8357"/>
<polygon points="1114.84,145.38 1127.85,156.78 1121.68,145.97 1108.97,135.04" fill="#a83d25"/>
<polygon points="871.01,245.87 870.16,239.56 871.90,252.90 872.67,259.14" fill="#a83d25"/>
<polygon points="1084.25,119.93 1099.52,127.88 1087.42,124.60 1073.13,117.35" fill="#cf6743"/>
<polygon points="802.93,188.61 805.94,175.84 822.20,179.78 819.88,190.99" fill="#f18b5c"/>
<polygon points="851.39,207.15 852.64,198.59 863.84,211.61 862.85,219.34" fill="#c55c3b"/>
<polygon points="1045.56,114.40 1060.74,119.02 1048.31,124.79 1034.50,120.75" fill="#ee8759"/>
<polygon points="852.78,314.24 850.65,306.73 836.02,313.71 839.12,322.13" fill="#a83d25"/>
<polygon points="1126.44,182.90 1134.93,196.69 1138.31,183.41 1129.48,169.51" fill="#a83d25"/>
<polygon points="1084.45,229.25 1085.81,241.11 1102.47,239.17 1100.35,226.12" fill="#a83d25"/>
<polygon points="790.71,310.76 786.06,298.69 774.96,289.21 780.06,302.13" fill="#a83d25"/>
<polygon points="863.19,226.60 862.85,219.34 869.86,232.76 870.16,239.56" fill="#ac4128"/>
<polygon points="768.28,277.32 764.57,262.95 762.92,249.67 766.67,264.19" fill="#bc5334"/>
<polygon points="839.12,322.13 836.02,313.71 820.13,316.85 824.22,326.30" fill="#a83d25"/>
<polygon points="1100.35,226.12 1102.47,239.17 1117.81,233.26 1114.97,219.14" fill="#a83d25"/>
<polygon points="1011.85,156.46 1022.20,159.34 1020.08,172.84 1010.28,170.01" fill="#da724b"/>
<polygon points="863.87,303.39 862.56,296.59 850.65,306.73 852.78,314.24" fill="#a83d25"/>
<polygon points="1068.84,228.24 1069.47,238.90 1085.81,241.11 1084.45,229.25" fill="#a83d25"/>
<polygon points="766.63,236.87 765.05,221.74 773.77,211.44 775.36,225.77" fill="#e27b51"/>
<polygon points="1020.08,172.84 1028.18,177.20 1029.89,189.71 1021.90,185.16" fill="#c45b3a"/>
<polygon points="819.88,190.99 822.20,179.78 838.30,187.62 836.58,197.38" fill="#e98256"/>
<polygon points="836.58,197.38 838.30,187.62 852.64,198.59 851.39,207.15" fill="#da724a"/>
<polygon points="1029.89,189.71 1035.42,195.81 1041.58,206.63 1035.75,200.05" fill="#aa3f26"/>
<polygon points="824.22,326.30 820.13,316.85 804.51,315.83 809.55,326.33" fill="#a83d25"/>
<polygon points="1041.58,206.63 1044.39,214.54 1055.03,223.16 1051.67,214.48" fill="#a83d25"/>
<polygon points="1114.97,219.14 1117.81,233.26 1130.34,223.97 1126.89,209.00" fill="#a83d25"/>
<polygon points="1034.50,120.75 1048.31,124.79 1037.04,134.07 1024.58,130.56" fill="#f48d5e"/>
<polygon points="873.99,271.01 873.46,265.07 869.84,278.15 870.61,284.28" fill="#a83d25"/>
<polygon points="1016.77,142.87 1028.05,145.98 1022.20,159.34 1011.85,156.46" fill="#e98356"/>
<polygon points="786.69,204.29 787.39,190.46 802.93,188.61 802.54,200.98" fill="#f38d5d"/>
<polygon points="871.84,251.93 871.01,245.87 872.67,259.14 873.46,265.07" fill="#a83d25"/>
<polygon points="1024.58,130.56 1037.04,134.07 1028.05,145.98 1016.77,142.87" fill="#f28c5d"/>
<polygon points="871.30,290.64 870.61,284.28 862.56,296.59 863.87,303.39" fill="#a83d25"/>
<polygon points="1073.13,117.35 1087.42,124.60 1073.83,125.53 1060.74,119.02" fill="#e17a50"/>
<polygon points="1055.03,223.16 1055.05,232.75 1069.47,238.90 1068.84,228.24" fill="#a83d25"/>
<polygon points="1108.97,135.04 1121.68,145.97 1111.60,138.12 1099.52,127.88" fill="#bb5233"/>
<polygon points="851.65,215.30 851.39,207.15 862.85,219.34 863.19,226.60" fill="#c35a3a"/>
<polygon points="1129.48,169.51 1138.31,183.41 1136.71,170.47 1127.85,156.78" fill="#a83d25"/>
<polygon points="864.15,233.43 863.19,226.60 870.16,239.56 871.01,245.87" fill="#ab4027"/>
<polygon points="780.06,302.13 774.96,289.21 768.28,277.32 773.63,290.79" fill="#a83d25"/>
<polygon points="809.55,326.33 804.51,315.83 790.71,310.76 796.53,322.22" fill="#a83d25"/>
<polygon points="1022.20,159.34 1030.80,163.74 1028.18,177.20 1020.08,172.84" fill="#d9714a"/>
<polygon points="766.67,264.19 762.92,249.67 766.63,236.87 770.29,251.10" fill="#d26a44"/>
<polygon points="1126.89,209.00 1130.34,223.97 1138.83,212.21 1134.93,196.69" fill="#a83d25"/>
<polygon points="802.54,200.98 802.93,188.61 819.88,190.99 819.77,201.83" fill="#f18b5c"/>
<polygon points="775.36,225.77 773.77,211.44 786.69,204.29 788.24,217.49" fill="#ee875a"/>
<polygon points="1028.18,177.20 1033.78,183.09 1035.42,195.81 1029.89,189.71" fill="#c15838"/>
<polygon points="1085.81,241.11 1083.51,253.44 1100.63,252.84 1102.47,239.17" fill="#a83d25"/>
<polygon points="855.56,321.92 852.78,314.24 839.12,322.13 843.03,330.57" fill="#a83d25"/>
<polygon points="1060.74,119.02 1073.83,125.53 1060.11,130.57 1048.31,124.79" fill="#ed8759"/>
<polygon points="836.69,206.77 836.58,197.38 851.39,207.15 851.65,215.30" fill="#d87049"/>
<polygon points="1035.42,195.81 1037.95,203.20 1044.39,214.54 1041.58,206.63" fill="#a83d25"/>
<polygon points="1069.47,238.90 1066.71,249.92 1083.51,253.44 1085.81,241.11" fill="#a83d25"/>
<polygon points="865.66,310.49 863.87,303.39 852.78,314.24 855.56,321.92" fill="#a83d25"/>
<polygon points="874.35,277.25 873.99,271.01 870.61,284.28 871.30,290.64" fill="#a83d25"/>
<polygon points="1044.39,214.54 1043.95,223.27 1055.05,232.75 1055.03,223.16" fill="#a83d25"/>
<polygon points="819.77,201.83 819.88,190.99 836.58,197.38 836.69,206.77" fill="#e88155"/>
<polygon points="872.38,258.06 871.84,251.93 873.46,265.07 873.99,271.01" fill="#a83d25"/>
<polygon points="1102.47,239.17 1100.63,252.84 1116.40,248.17 1117.81,233.26" fill="#a83d25"/>
<polygon points="843.03,330.57 839.12,322.13 824.22,326.30 829.31,335.61" fill="#a83d25"/>
<polygon points="1028.05,145.98 1037.48,150.66 1030.80,163.74 1022.20,159.34" fill="#e88155"/>
<polygon points="1099.52,127.88 1111.60,138.12 1098.58,134.01 1087.42,124.60" fill="#d16844"/>
<polygon points="865.16,240.05 864.15,233.43 871.01,245.87 871.84,251.93" fill="#ab4027"/>
<polygon points="1048.31,124.79 1060.11,130.57 1047.58,139.23 1037.04,134.07" fill="#f38d5e"/>
<polygon points="852.74,223.05 851.65,215.30 863.19,226.60 864.15,233.43" fill="#c35939"/>
<polygon points="872.34,297.40 871.30,290.64 863.87,303.39 865.66,310.49" fill="#a83d25"/>
<polygon points="1055.05,232.75 1051.89,242.60 1066.71,249.92 1069.47,238.90" fill="#a83d25"/>
<polygon points="1037.04,134.07 1047.58,139.23 1037.48,150.66 1028.05,145.98" fill="#f18b5c"/>
<polygon points="1127.85,156.78 1136.71,170.47 1130.27,159.13 1121.68,145.97" fill="#a83d25"/>
<polygon points="796.53,322.22 790.71,310.76 780.06,302.13 786.45,314.38" fill="#a83d25"/>
<polygon points="773.63,290.79 768.28,277.32 766.67,264.19 772.02,277.85" fill="#be5435"/>
<polygon points="1134.93,196.69 1138.83,212.21 1142.44,199.12 1138.31,183.41" fill="#a83d25"/>
<polygon points="788.24,217.49 786.69,204.29 802.54,200.98 804.01,212.81" fill="#f38d5e"/>
<polygon points="770.29,251.10 766.63,236.87 775.36,225.77 778.77,239.34" fill="#e37c52"/>
<polygon points="829.31,335.61 824.22,326.30 809.55,326.33 815.72,336.54" fill="#a83d25"/>
<polygon points="1030.80,163.74 1036.83,169.70 1033.78,183.09 1028.18,177.20" fill="#d66e48"/>
<polygon points="1117.81,233.26 1116.40,248.17 1129.28,239.88 1130.34,223.97" fill="#a83d25"/>
<polygon points="872.71,264.53 872.38,258.06 873.99,271.01 874.35,277.25" fill="#a83d25"/>
<polygon points="837.92,215.74 836.69,206.77 851.65,215.30 852.74,223.05" fill="#d87049"/>
<polygon points="1033.78,183.09 1036.34,190.26 1037.95,203.20 1035.42,195.81" fill="#bd5435"/>
<polygon points="874.96,283.95 874.35,277.25 871.30,290.64 872.34,297.40" fill="#a83d25"/>
<polygon points="1037.95,203.20 1037.27,211.38 1043.95,223.27 1044.39,214.54" fill="#a83d25"/>
<polygon points="1087.42,124.60 1098.58,134.01 1083.91,134.04 1073.83,125.53" fill="#e27b51"/>
<polygon points="1043.95,223.27 1040.49,232.22 1051.89,242.60 1055.05,232.75" fill="#a83d25"/>
<polygon points="1066.71,249.92 1061.10,260.65 1078.02,265.59 1083.51,253.44" fill="#a83d25"/>
<polygon points="865.94,246.73 865.16,240.05 871.84,251.93 872.38,258.06" fill="#ac4128"/>
<polygon points="804.01,212.81 802.54,200.98 819.77,201.83 821.13,212.21" fill="#f18b5c"/>
<polygon points="1083.51,253.44 1078.02,265.59 1095.25,266.44 1100.63,252.84" fill="#a83d25"/>
<polygon points="854.07,230.56 852.74,223.05 864.15,233.43 865.16,240.05" fill="#c25939"/>
<polygon points="821.13,212.21 819.77,201.83 836.69,206.77 837.92,215.74" fill="#e88155"/>
<polygon points="868.54,317.83 865.66,310.49 855.56,321.92 859.55,329.74" fill="#a83d25"/>
<polygon points="1051.89,242.60 1046.14,252.12 1061.10,260.65 1066.71,249.92" fill="#a83d25"/>
<polygon points="1037.48,150.66 1044.26,156.95 1036.83,169.70 1030.80,163.74" fill="#e67f54"/>
<polygon points="859.55,329.74 855.56,321.92 843.03,330.57 848.28,339.03" fill="#a83d25"/>
<polygon points="1121.68,145.97 1130.27,159.13 1119.62,150.50 1111.60,138.12" fill="#be5435"/>
<polygon points="786.45,314.38 780.06,302.13 773.63,290.79 780.29,303.56" fill="#a83d25"/>
<polygon points="815.72,336.54 809.55,326.33 796.53,322.22 803.62,333.26" fill="#a83d25"/>
<polygon points="778.77,239.34 775.36,225.77 788.24,217.49 791.30,230.05" fill="#ef885a"/>
<polygon points="874.39,304.48 872.34,297.40 865.66,310.49 868.54,317.83" fill="#a83d25"/>
<polygon points="772.02,277.85 766.67,264.19 770.29,251.10 775.40,264.57" fill="#d36b45"/>
<polygon points="1073.83,125.53 1083.91,134.04 1069.01,138.21 1060.11,130.57" fill="#ee875a"/>
<polygon points="1138.31,183.41 1142.44,199.12 1140.83,185.99 1136.71,170.47" fill="#a83d25"/>
<polygon points="1130.34,223.97 1129.28,239.88 1138.00,228.79 1138.83,212.21" fill="#a83d25"/>
<polygon points="1100.63,252.84 1095.25,266.44 1111.10,263.13 1116.40,248.17" fill="#a83d25"/>
<polygon points="1047.58,139.23 1055.35,146.10 1044.26,156.95 1037.48,150.66" fill="#f0895b"/>
<polygon points="848.28,339.03 843.03,330.57 829.31,335.61 835.85,344.79" fill="#a83d25"/>
<polygon points="1060.11,130.57 1069.01,138.21 1055.35,146.10 1047.58,139.23" fill="#f28c5d"/>
<polygon points="873.25,271.44 872.71,264.53 874.35,277.25 874.96,283.95" fill="#a83d25"/>
<polygon points="1036.83,169.70 1039.73,176.98 1036.34,190.26 1033.78,183.09" fill="#d26a45"/>
<polygon points="839.65,224.42 837.92,215.74 852.74,223.05 854.07,230.56" fill="#d76f49"/>
<polygon points="866.55,253.71 865.94,246.73 872.38,258.06 872.71,264.53" fill="#ac4128"/>
<polygon points="1040.49,232.22 1034.60,240.82 1046.14,252.12 1051.89,242.60" fill="#a83d25"/>
<polygon points="1037.27,211.38 1033.62,219.78 1040.49,232.22 1043.95,223.27" fill="#a83d25"/>
<polygon points="1036.34,190.26 1035.66,198.25 1037.27,211.38 1037.95,203.20" fill="#b84e31"/>
<polygon points="855.30,238.10 854.07,230.56 865.16,240.05 865.94,246.73" fill="#c25939"/>
<polygon points="876.51,290.98 874.96,283.95 872.34,297.40 874.39,304.48" fill="#a83d25"/>
<polygon points="1061.10,260.65 1053.42,270.62 1070.12,277.01 1078.02,265.59" fill="#a83d25"/>
<polygon points="791.30,230.05 788.24,217.49 804.01,212.81 806.65,224.15" fill="#f48e5e"/>
<polygon points="1046.14,252.12 1038.61,260.85 1053.42,270.62 1061.10,260.65" fill="#a83d25"/>
<polygon points="1111.60,138.12 1119.62,150.50 1105.82,145.43 1098.58,134.01" fill="#d36b45"/>
<polygon points="823.31,222.20 821.13,212.21 837.92,215.74 839.65,224.42" fill="#e78055"/>
<polygon points="1078.02,265.59 1070.12,277.01 1087.07,279.39 1095.25,266.44" fill="#a83d25"/>
<polygon points="806.65,224.15 804.01,212.81 821.13,212.21 823.31,222.20" fill="#f18b5c"/>
<polygon points="803.62,333.26 796.53,322.22 786.45,314.38 794.17,326.10" fill="#a83d25"/>
<polygon points="1116.40,248.17 1111.10,263.13 1124.02,255.98 1129.28,239.88" fill="#a83d25"/>
<polygon points="775.40,264.57 770.29,251.10 778.77,239.34 783.45,252.26" fill="#e47d52"/>
<polygon points="835.85,344.79 829.31,335.61 815.72,336.54 823.46,346.47" fill="#a83d25"/>
<polygon points="780.29,303.56 773.63,290.79 772.02,277.85 778.65,290.83" fill="#bf5536"/>
<polygon points="1136.71,170.47 1140.83,185.99 1134.15,174.10 1130.27,159.13" fill="#aa3f26"/>
<polygon points="1138.83,212.21 1138.00,228.79 1141.72,215.98 1142.44,199.12" fill="#a83d25"/>
<polygon points="873.23,325.13 868.54,317.83 859.55,329.74 865.42,337.44" fill="#a83d25"/>
<polygon points="1044.26,156.95 1047.77,164.67 1039.73,176.98 1036.83,169.70" fill="#e37c51"/>
<polygon points="1034.60,240.82 1027.15,248.66 1038.61,260.85 1046.14,252.12" fill="#a83d25"/>
<polygon points="878.15,311.54 874.39,304.48 868.54,317.83 873.23,325.13" fill="#a83d25"/>
<polygon points="867.39,261.09 866.55,253.71 872.71,264.53 873.25,271.44" fill="#ab4027"/>
<polygon points="841.50,233.03 839.65,224.42 854.07,230.56 855.30,238.10" fill="#d76f48"/>
<polygon points="874.69,278.65 873.25,271.44 874.96,283.95 876.51,290.98" fill="#a83d25"/>
<polygon points="865.42,337.44 859.55,329.74 848.28,339.03 855.50,347.25" fill="#a83d25"/>
<polygon points="1033.62,219.78 1027.62,227.86 1034.60,240.82 1040.49,232.22" fill="#a83d25"/>
<polygon points="1038.61,260.85 1030.23,268.59 1044.58,279.56 1053.42,270.62" fill="#a83d25"/>
<polygon points="1053.42,270.62 1044.58,279.56 1060.67,287.39 1070.12,277.01" fill="#a83d25"/>
<polygon points="856.46,245.87 855.30,238.10 865.94,246.73 866.55,253.71" fill="#c25838"/>
<polygon points="1098.58,134.01 1105.82,145.43 1090.21,144.41 1083.91,134.04" fill="#e37c52"/>
<polygon points="1095.25,266.44 1087.07,279.39 1102.61,277.54 1111.10,263.13" fill="#a83d25"/>
<polygon points="1039.73,176.98 1039.28,185.16 1035.66,198.25 1036.34,190.26" fill="#ce6541"/>
<polygon points="1035.66,198.25 1031.97,206.51 1033.62,219.78 1037.27,211.38" fill="#b3492d"/>
<polygon points="783.45,252.26 778.77,239.34 791.30,230.05 795.36,242.12" fill="#f0895b"/>
<polygon points="1055.35,146.10 1059.69,154.53 1047.77,164.67 1044.26,156.95" fill="#ee875a"/>
<polygon points="879.72,297.99 876.51,290.98 874.39,304.48 878.15,311.54" fill="#a83d25"/>
<polygon points="1083.91,134.04 1090.21,144.41 1074.31,147.55 1069.01,138.21" fill="#ee875a"/>
<polygon points="823.46,346.47 815.72,336.54 803.62,333.26 812.34,343.89" fill="#a83d25"/>
<polygon points="1027.15,248.66 1019.04,255.56 1030.23,268.59 1038.61,260.85" fill="#a83d25"/>
<polygon points="1070.12,277.01 1060.67,287.39 1076.94,291.33 1087.07,279.39" fill="#a83d25"/>
<polygon points="825.88,232.01 823.31,222.20 839.65,224.42 841.50,233.03" fill="#e78054"/>
<polygon points="855.50,347.25 848.28,339.03 835.85,344.79 844.44,353.60" fill="#a83d25"/>
<polygon points="778.65,290.83 772.02,277.85 775.40,264.57 781.69,277.44" fill="#d46c46"/>
<polygon points="1069.01,138.21 1074.31,147.55 1059.69,154.53 1055.35,146.10" fill="#f18b5c"/>
<polygon points="794.17,326.10 786.45,314.38 780.29,303.56 788.30,315.76" fill="#a93e25"/>
<polygon points="1129.28,239.88 1124.02,255.98 1132.74,245.68 1138.00,228.79" fill="#a83d25"/>
<polygon points="1030.23,268.59 1021.75,275.40 1035.34,287.48 1044.58,279.56" fill="#a83d25"/>
<polygon points="795.36,242.12 791.30,230.05 806.65,224.15 809.99,235.14" fill="#f48e5e"/>
<polygon points="1130.27,159.13 1134.15,174.10 1123.06,164.62 1119.62,150.50" fill="#c15738"/>
<polygon points="1027.62,227.86 1020.14,235.24 1027.15,248.66 1034.60,240.82" fill="#a83d25"/>
<polygon points="809.99,235.14 806.65,224.15 823.31,222.20 825.88,232.01" fill="#f18b5c"/>
<polygon points="1044.58,279.56 1035.34,287.48 1050.47,296.70 1060.67,287.39" fill="#a83d25"/>
<polygon points="1142.44,199.12 1141.72,215.98 1140.06,202.71 1140.83,185.99" fill="#a83d25"/>
<polygon points="843.45,241.76 841.50,233.03 855.30,238.10 856.46,245.87" fill="#d66e48"/>
<polygon points="869.13,268.72 867.39,261.09 873.25,271.44 874.69,278.65" fill="#a93e26"/>
<polygon points="857.94,253.94 856.46,245.87 866.55,253.71 867.39,261.09" fill="#c05737"/>
<polygon points="1019.04,255.56 1011.04,261.63 1021.75,275.40 1030.23,268.59" fill="#a83d25"/>
<polygon points="877.77,285.80 874.69,278.65 876.51,290.98 879.72,297.99" fill="#a83d25"/>
<polygon points="1047.77,164.67 1047.76,173.40 1039.28,185.16 1039.73,176.98" fill="#df784f"/>
<polygon points="1111.10,263.13 1102.61,277.54 1115.24,271.63 1124.02,255.98" fill="#a83d25"/>
<polygon points="1031.97,206.51 1025.89,214.52 1027.62,227.86 1033.62,219.78" fill="#ae442a"/>
<polygon points="884.24,318.05 878.15,311.54 873.23,325.13 880.29,331.87" fill="#a83d25"/>
<polygon points="880.29,331.87 873.23,325.13 865.42,337.44 873.74,344.52" fill="#a83d25"/>
<polygon points="1021.75,275.40 1013.64,281.55 1026.20,294.62 1035.34,287.48" fill="#a83d25"/>
<polygon points="1039.28,185.16 1035.69,193.70 1031.97,206.51 1035.66,198.25" fill="#c9603d"/>
<polygon points="1020.14,235.24 1012.09,241.76 1019.04,255.56 1027.15,248.66" fill="#a83d25"/>
<polygon points="781.69,277.44 775.40,264.57 783.45,252.26 789.12,264.70" fill="#e57e53"/>
<polygon points="1087.07,279.39 1076.94,291.33 1091.79,290.99 1102.61,277.54" fill="#a83d25"/>
<polygon points="844.44,353.60 835.85,344.79 823.46,346.47 833.31,355.88" fill="#a83d25"/>
<polygon points="1060.67,287.39 1050.47,296.70 1065.66,302.16 1076.94,291.33" fill="#a83d25"/>
<polygon points="1035.34,287.48 1026.20,294.62 1040.03,305.11 1050.47,296.70" fill="#a83d25"/>
<polygon points="1011.04,261.63 1003.60,267.17 1013.64,281.55 1021.75,275.40" fill="#a83d25"/>
<polygon points="885.19,304.41 879.72,297.99 878.15,311.54 884.24,318.05" fill="#a83d25"/>
<polygon points="873.74,344.52 865.42,337.44 855.50,347.25 865.23,354.77" fill="#a83d25"/>
<polygon points="812.34,343.89 803.62,333.26 794.17,326.10 803.57,337.30" fill="#a83d25"/>
<polygon points="1119.62,150.50 1123.06,164.62 1108.64,158.47 1105.82,145.43" fill="#d56d47"/>
<polygon points="788.30,315.76 780.29,303.56 778.65,290.83 786.60,303.25" fill="#c05637"/>
<polygon points="828.77,241.79 825.88,232.01 841.50,233.03 843.45,241.76" fill="#e67f54"/>
<polygon points="1013.64,281.55 1005.98,287.44 1017.26,301.33 1026.20,294.62" fill="#a83d25"/>
<polygon points="1138.00,228.79 1132.74,245.68 1136.41,233.26 1141.72,215.98" fill="#a83d25"/>
<polygon points="1059.69,154.53 1060.29,164.11 1047.76,173.40 1047.77,164.67" fill="#eb8558"/>
<polygon points="1012.09,241.76 1004.25,247.54 1011.04,261.63 1019.04,255.56" fill="#a83d25"/>
<polygon points="789.12,264.70 783.45,252.26 795.36,242.12 800.21,253.85" fill="#f08a5b"/>
<polygon points="1025.89,214.52 1018.28,221.90 1020.14,235.24 1027.62,227.86" fill="#ab4027"/>
<polygon points="845.83,250.66 843.45,241.76 856.46,245.87 857.94,253.94" fill="#d46c46"/>
<polygon points="1003.60,267.17 996.77,272.59 1005.98,287.44 1013.64,281.55" fill="#a83d25"/>
<polygon points="1140.83,185.99 1140.06,202.71 1133.20,190.27 1134.15,174.10" fill="#ad4329"/>
<polygon points="860.36,262.13 857.94,253.94 867.39,261.09 869.13,268.72" fill="#be5536"/>
<polygon points="872.49,276.18 869.13,268.72 874.69,278.65 877.77,285.80" fill="#a83d25"/>
<polygon points="813.88,245.95 809.99,235.14 825.88,232.01 828.77,241.79" fill="#f18a5c"/>
<polygon points="1105.82,145.43 1108.64,158.47 1092.30,156.26 1090.21,144.41" fill="#e57e53"/>
<polygon points="1026.20,294.62 1017.26,301.33 1029.52,312.93 1040.03,305.11" fill="#a83d25"/>
<polygon points="800.21,253.85 795.36,242.12 809.99,235.14 813.88,245.95" fill="#f48e5e"/>
<polygon points="883.06,292.30 877.77,285.80 879.72,297.99 885.19,304.41" fill="#a83d25"/>
<polygon points="865.23,354.77 855.50,347.25 844.44,353.60 855.59,361.61" fill="#a83d25"/>
<polygon points="1050.47,296.70 1040.03,305.11 1053.79,311.99 1065.66,302.16" fill="#a83d25"/>
<polygon points="1074.31,147.55 1075.64,158.20 1060.29,164.11 1059.69,154.53" fill="#f18a5c"/>
<polygon points="1004.25,247.54 997.06,252.90 1003.60,267.17 1011.04,261.63" fill="#a83d25"/>
<polygon points="1090.21,144.41 1092.30,156.26 1075.64,158.20 1074.31,147.55" fill="#ee885a"/>
<polygon points="1124.02,255.98 1115.24,271.63 1123.69,262.25 1132.74,245.68" fill="#a83d25"/>
<polygon points="1005.98,287.44 998.46,293.43 1008.30,307.96 1017.26,301.33" fill="#a83d25"/>
<polygon points="1035.69,193.70 1029.56,202.09 1025.89,214.52 1031.97,206.51" fill="#c45b3a"/>
<polygon points="892.92,323.36 884.24,318.05 880.29,331.87 890.01,337.42" fill="#a83d25"/>
<polygon points="833.31,355.88 823.46,346.47 812.34,343.89 823.21,353.87" fill="#a83d25"/>
<polygon points="1047.76,173.40 1044.41,182.61 1035.69,193.70 1039.28,185.16" fill="#db744c"/>
<polygon points="1076.94,291.33 1065.66,302.16 1079.43,303.32 1091.79,290.99" fill="#a83d25"/>
<polygon points="786.60,303.25 778.65,290.83 781.69,277.44 789.21,289.80" fill="#d56d47"/>
<polygon points="890.01,337.42 880.29,331.87 873.74,344.52 884.78,350.39" fill="#a83d25"/>
<polygon points="996.77,272.59 990.21,278.27 998.46,293.43 1005.98,287.44" fill="#a83d25"/>
<polygon points="1018.28,221.90 1010.08,228.53 1012.09,241.76 1020.14,235.24" fill="#a93e25"/>
<polygon points="1102.61,277.54 1091.79,290.99 1103.76,286.40 1115.24,271.63" fill="#a83d25"/>
<polygon points="803.57,337.30 794.17,326.10 788.30,315.76 798.00,327.37" fill="#aa3f26"/>
<polygon points="893.21,309.60 885.19,304.41 884.24,318.05 892.92,323.36" fill="#a83d25"/>
<polygon points="997.06,252.90 990.54,258.26 996.77,272.59 1003.60,267.17" fill="#a83d25"/>
<polygon points="832.25,251.58 828.77,241.79 843.45,241.76 845.83,250.66" fill="#e57e53"/>
<polygon points="1017.26,301.33 1008.30,307.96 1018.77,320.46 1029.52,312.93" fill="#a83d25"/>
<polygon points="1134.15,174.10 1133.20,190.27 1121.80,179.89 1123.06,164.62" fill="#c45b3a"/>
<polygon points="884.78,350.39 873.74,344.52 865.23,354.77 877.73,361.01" fill="#a83d25"/>
<polygon points="1040.03,305.11 1029.52,312.93 1041.55,321.08 1053.79,311.99" fill="#a83d25"/>
<polygon points="998.46,293.43 990.53,299.74 998.82,314.72 1008.30,307.96" fill="#a83d25"/>
<polygon points="1010.08,228.53 1002.05,234.50 1004.25,247.54 1012.09,241.76" fill="#a83d25"/>
<polygon points="1141.72,215.98 1136.41,233.26 1134.67,219.91 1140.06,202.71" fill="#a83d25"/>
<polygon points="849.23,259.55 845.83,250.66 857.94,253.94 860.36,262.13" fill="#d36a45"/>
<polygon points="990.21,278.27 983.33,284.43 990.53,299.74 998.46,293.43" fill="#a83d25"/>
<polygon points="864.41,270.06 860.36,262.13 869.13,268.72 872.49,276.18" fill="#bc5234"/>
<polygon points="789.21,289.80 781.69,277.44 789.12,264.70 795.90,276.71" fill="#e67f53"/>
<polygon points="878.06,282.89 872.49,276.18 877.77,285.80 883.06,292.30" fill="#a83d25"/>
<polygon points="855.59,361.61 844.44,353.60 833.31,355.88 845.76,364.37" fill="#a83d25"/>
<polygon points="990.54,258.26 984.36,263.99 990.21,278.27 996.77,272.59" fill="#a83d25"/>
<polygon points="1029.56,202.09 1021.75,209.96 1018.28,221.90 1025.89,214.52" fill="#c05737"/>
<polygon points="1060.29,164.11 1057.29,174.32 1044.41,182.61 1047.76,173.40" fill="#e98256"/>
<polygon points="890.87,297.47 883.06,292.30 885.19,304.41 893.21,309.60" fill="#a83d25"/>
<polygon points="818.53,256.62 813.88,245.95 828.77,241.79 832.25,251.58" fill="#f08a5b"/>
<polygon points="1065.66,302.16 1053.79,311.99 1066.13,314.59 1079.43,303.32" fill="#a83d25"/>
<polygon points="1002.05,234.50 994.64,240.13 997.06,252.90 1004.25,247.54" fill="#a83d25"/>
<polygon points="1008.30,307.96 998.82,314.72 1007.38,327.91 1018.77,320.46" fill="#a83d25"/>
<polygon points="904.07,326.90 892.92,323.36 890.01,337.42 902.27,341.21" fill="#a83d25"/>
<polygon points="823.21,353.87 812.34,343.89 803.57,337.30 815.13,347.75" fill="#a83d25"/>
<polygon points="795.90,276.71 789.12,264.70 800.21,253.85 806.00,265.28" fill="#f08a5c"/>
<polygon points="1044.41,182.61 1038.28,191.80 1029.56,202.09 1035.69,193.70" fill="#d87049"/>
<polygon points="798.00,327.37 788.30,315.76 786.60,303.25 796.19,315.04" fill="#c15838"/>
<polygon points="806.00,265.28 800.21,253.85 813.88,245.95 818.53,256.62" fill="#f48e5e"/>
<polygon points="990.53,299.74 981.59,306.35 988.27,321.58 998.82,314.72" fill="#a83d25"/>
<polygon points="902.27,341.21 890.01,337.42 884.78,350.39 898.43,354.48" fill="#a83d25"/>
<polygon points="1132.74,245.68 1123.69,262.25 1127.16,250.30 1136.41,233.26" fill="#a83d25"/>
<polygon points="903.65,312.95 893.21,309.60 892.92,323.36 904.07,326.90" fill="#a83d25"/>
<polygon points="1123.06,164.62 1121.80,179.89 1106.97,172.57 1108.64,158.47" fill="#d87049"/>
<polygon points="983.33,284.43 975.47,291.03 981.59,306.35 990.53,299.74" fill="#a83d25"/>
<polygon points="1029.52,312.93 1018.77,320.46 1028.86,329.70 1041.55,321.08" fill="#a83d25"/>
<polygon points="984.36,263.99 977.91,270.30 983.33,284.43 990.21,278.27" fill="#a83d25"/>
<polygon points="1091.79,290.99 1079.43,303.32 1090.43,300.07 1103.76,286.40" fill="#a83d25"/>
<polygon points="877.73,361.01 865.23,354.77 855.59,361.61 869.56,368.24" fill="#a83d25"/>
<polygon points="994.64,240.13 987.91,245.84 990.54,258.26 997.06,252.90" fill="#aa3f26"/>
<polygon points="1075.64,158.20 1073.06,169.65 1057.29,174.32 1060.29,164.11" fill="#f08a5b"/>
<polygon points="1021.75,209.96 1013.19,217.16 1010.08,228.53 1018.28,221.90" fill="#bf5536"/>
<polygon points="1115.24,271.63 1103.76,286.40 1111.70,278.01 1123.69,262.25" fill="#a83d25"/>
<polygon points="836.85,261.23 832.25,251.58 845.83,250.66 849.23,259.55" fill="#e47d52"/>
<polygon points="1108.64,158.47 1106.97,172.57 1090.18,169.04 1092.30,156.26" fill="#e78054"/>
<polygon points="998.82,314.72 988.27,321.58 994.85,335.23 1007.38,327.91" fill="#a83d25"/>
<polygon points="1140.06,202.71 1134.67,219.91 1127.70,206.96 1133.20,190.27" fill="#b1462c"/>
<polygon points="1092.30,156.26 1090.18,169.04 1073.06,169.65 1075.64,158.20" fill="#ef895b"/>
<polygon points="854.31,268.04 849.23,259.55 860.36,262.13 864.41,270.06" fill="#d16944"/>
<polygon points="886.11,288.18 878.06,282.89 883.06,292.30 890.87,297.47" fill="#a83d25"/>
<polygon points="1053.79,311.99 1041.55,321.08 1052.18,325.00 1066.13,314.59" fill="#a83d25"/>
<polygon points="898.43,354.48 884.78,350.39 877.73,361.01 892.91,365.41" fill="#a83d25"/>
<polygon points="870.67,277.11 864.41,270.06 872.49,276.18 878.06,282.89" fill="#ba5033"/>
<polygon points="845.76,364.37 833.31,355.88 823.21,353.87 836.71,362.78" fill="#a83d25"/>
<polygon points="981.59,306.35 971.17,312.96 976.24,328.27 988.27,321.58" fill="#a83d25"/>
<polygon points="901.05,300.73 890.87,297.47 893.21,309.60 903.65,312.95" fill="#a83d25"/>
<polygon points="975.47,291.03 966.13,297.76 971.17,312.96 981.59,306.35" fill="#a83d25"/>
<polygon points="977.91,270.30 970.51,277.14 975.47,291.03 983.33,284.43" fill="#a83d25"/>
<polygon points="987.91,245.84 981.49,251.97 984.36,263.99 990.54,258.26" fill="#ab4027"/>
<polygon points="917.16,328.23 904.07,326.90 902.27,341.21 916.54,342.81" fill="#a83d25"/>
<polygon points="796.19,315.04 786.60,303.25 789.21,289.80 798.31,301.54" fill="#d66e47"/>
<polygon points="1018.77,320.46 1007.38,327.91 1015.37,338.01 1028.86,329.70" fill="#a83d25"/>
<polygon points="1013.19,217.16 1004.65,223.78 1002.05,234.50 1010.08,228.53" fill="#be5536"/>
<polygon points="915.95,314.04 903.65,312.95 904.07,326.90 917.16,328.23" fill="#a83d25"/>
<polygon points="1038.28,191.80 1030.21,200.57 1021.75,209.96 1029.56,202.09" fill="#d56d47"/>
<polygon points="815.13,347.75 803.57,337.30 798.00,327.37 809.86,338.12" fill="#ab4027"/>
<polygon points="916.54,342.81 902.27,341.21 898.43,354.48 914.17,356.35" fill="#a83d25"/>
<polygon points="1057.29,174.32 1051.20,184.64 1038.28,191.80 1044.41,182.61" fill="#e78055"/>
<polygon points="824.41,266.99 818.53,256.62 832.25,251.58 836.85,261.23" fill="#f0895b"/>
<polygon points="988.27,321.58 976.24,328.27 980.85,342.19 994.85,335.23" fill="#a83d25"/>
<polygon points="971.17,312.96 959.09,319.05 962.61,334.30 976.24,328.27" fill="#a83d25"/>
<polygon points="869.56,368.24 855.59,361.61 845.76,364.37 861.07,371.36" fill="#a83d25"/>
<polygon points="966.13,297.76 955.10,304.06 959.09,319.05 971.17,312.96" fill="#a83d25"/>
<polygon points="1079.43,303.32 1066.13,314.59 1075.85,312.65 1090.43,300.07" fill="#a83d25"/>
<polygon points="981.49,251.97 974.81,258.73 977.91,270.30 984.36,263.99" fill="#ab4027"/>
<polygon points="970.51,277.14 961.62,284.15 966.13,297.76 975.47,291.03" fill="#a83d25"/>
<polygon points="931.32,327.21 917.16,328.23 916.54,342.81 931.99,342.05" fill="#a83d25"/>
<polygon points="1004.65,223.78 996.60,230.12 994.64,240.13 1002.05,234.50" fill="#bf5637"/>
<polygon points="798.31,301.54 789.21,289.80 795.90,276.71 804.15,288.19" fill="#e67f54"/>
<polygon points="1136.41,233.26 1127.16,250.30 1125.30,236.97 1134.67,219.91" fill="#a83d25"/>
<polygon points="929.26,312.75 915.95,314.04 917.16,328.23 931.32,327.21" fill="#a83d25"/>
<polygon points="1041.55,321.08 1028.86,329.70 1037.56,334.77 1052.18,325.00" fill="#a83d25"/>
<polygon points="913.05,301.64 901.05,300.73 903.65,312.95 915.95,314.04" fill="#a83d25"/>
<polygon points="813.15,276.28 806.00,265.28 818.53,256.62 824.41,266.99" fill="#f48e5e"/>
<polygon points="1133.20,190.27 1127.70,206.96 1116.16,195.66 1121.80,179.89" fill="#c75e3c"/>
<polygon points="959.09,319.05 945.60,324.00 947.64,339.08 962.61,334.30" fill="#a83d25"/>
<polygon points="1007.38,327.91 994.85,335.23 1000.69,345.98 1015.37,338.01" fill="#a83d25"/>
<polygon points="955.10,304.06 942.61,309.27 945.60,324.00 959.09,319.05" fill="#a83d25"/>
<polygon points="945.60,324.00 931.32,327.21 931.99,342.05 947.64,339.08" fill="#a83d25"/>
<polygon points="804.15,288.19 795.90,276.71 806.00,265.28 813.15,276.28" fill="#f18a5c"/>
<polygon points="892.91,365.41 877.73,361.01 869.56,368.24 886.27,372.94" fill="#a83d25"/>
<polygon points="896.52,291.43 886.11,288.18 890.87,297.47 901.05,300.73" fill="#a83d25"/>
<polygon points="843.18,270.32 836.85,261.23 849.23,259.55 854.31,268.04" fill="#e37c51"/>
<polygon points="942.61,309.27 929.26,312.75 931.32,327.21 945.60,324.00" fill="#a83d25"/>
<polygon points="931.99,342.05 916.54,342.81 914.17,356.35 931.20,355.83" fill="#a83d25"/>
<polygon points="976.24,328.27 962.61,334.30 965.31,348.30 980.85,342.19" fill="#a83d25"/>
<polygon points="1103.76,286.40 1090.43,300.07 1097.57,292.72 1111.70,278.01" fill="#a83d25"/>
<polygon points="914.17,356.35 898.43,354.48 892.91,365.41 910.27,367.54" fill="#a83d25"/>
<polygon points="1030.21,200.57 1021.12,208.77 1013.19,217.16 1021.75,209.96" fill="#d46c46"/>
<polygon points="1123.69,262.25 1111.70,278.01 1114.81,266.64 1127.16,250.30" fill="#a83d25"/>
<polygon points="996.60,230.12 989.11,236.55 987.91,245.84 994.64,240.13" fill="#c15838"/>
<polygon points="879.42,282.61 870.67,277.11 878.06,282.89 886.11,288.18" fill="#b94f31"/>
<polygon points="961.62,284.15 951.04,290.78 955.10,304.06 966.13,297.76" fill="#a83d25"/>
<polygon points="1073.06,169.65 1067.05,181.33 1051.20,184.64 1057.29,174.32" fill="#ef895b"/>
<polygon points="974.81,258.73 967.18,266.01 970.51,277.14 977.91,270.30" fill="#aa3f27"/>
<polygon points="861.62,275.52 854.31,268.04 864.41,270.06 870.67,277.11" fill="#d06743"/>
<polygon points="836.71,362.78 823.21,353.87 815.13,347.75 829.32,357.00" fill="#a83d25"/>
<polygon points="809.86,338.12 798.00,327.37 796.19,315.04 807.90,325.94" fill="#c25939"/>
<polygon points="962.61,334.30 947.64,339.08 948.54,353.03 965.31,348.30" fill="#a83d25"/>
<polygon points="947.64,339.08 931.99,342.05 931.20,355.83 948.54,353.03" fill="#a83d25"/>
<polygon points="926.01,300.10 913.05,301.64 915.95,314.04 929.26,312.75" fill="#a83d25"/>
<polygon points="1121.80,179.89 1116.16,195.66 1101.20,187.12 1106.97,172.57" fill="#da724b"/>
<polygon points="951.04,290.78 938.97,296.31 942.61,309.27 955.10,304.06" fill="#a83d25"/>
<polygon points="1051.20,184.64 1042.83,194.67 1030.21,200.57 1038.28,191.80" fill="#e67f53"/>
<polygon points="994.85,335.23 980.85,342.19 984.55,353.35 1000.69,345.98" fill="#a83d25"/>
<polygon points="938.97,296.31 926.01,300.10 929.26,312.75 942.61,309.27" fill="#a83d25"/>
<polygon points="1066.13,314.59 1052.18,325.00 1060.37,324.29 1075.85,312.65" fill="#a83d25"/>
<polygon points="989.11,236.55 981.88,243.40 981.49,251.97 987.91,245.84" fill="#c25838"/>
<polygon points="1028.86,329.70 1015.37,338.01 1022.01,344.04 1037.56,334.77" fill="#a83d25"/>
<polygon points="1090.18,169.04 1084.28,182.19 1067.05,181.33 1073.06,169.65" fill="#f0895b"/>
<polygon points="967.18,266.01 958.08,273.48 961.62,284.15 970.51,277.14" fill="#a83d25"/>
<polygon points="1106.97,172.57 1101.20,187.12 1084.28,182.19 1090.18,169.04" fill="#e88256"/>
<polygon points="1021.12,208.77 1011.80,216.43 1004.65,223.78 1013.19,217.16" fill="#d46c46"/>
<polygon points="908.72,292.24 896.52,291.43 901.05,300.73 913.05,301.64" fill="#a83d25"/>
<polygon points="861.07,371.36 845.76,364.37 836.71,362.78 853.08,370.08" fill="#a83d25"/>
<polygon points="931.20,355.83 914.17,356.35 910.27,367.54 929.02,367.20" fill="#a83d25"/>
<polygon points="832.12,276.68 824.41,266.99 836.85,261.23 843.18,270.32" fill="#ef895b"/>
<polygon points="1134.67,219.91 1125.30,236.97 1118.30,223.55 1127.70,206.96" fill="#b44a2e"/>
<polygon points="980.85,342.19 965.31,348.30 966.94,359.69 984.55,353.35" fill="#a83d25"/>
<polygon points="807.90,325.94 796.19,315.04 798.31,301.54 809.47,312.39" fill="#d76f48"/>
<polygon points="910.27,367.54 892.91,365.41 886.27,372.94 905.23,375.27" fill="#a83d25"/>
<polygon points="886.27,372.94 869.56,368.24 861.07,371.36 879.15,376.32" fill="#a83d25"/>
<polygon points="981.88,243.40 974.33,250.84 974.81,258.73 981.49,251.97" fill="#c15838"/>
<polygon points="890.51,285.96 879.42,282.61 886.11,288.18 896.52,291.43" fill="#b84e31"/>
<polygon points="948.54,353.03 931.20,355.83 929.02,367.20 948.21,364.47" fill="#a83d25"/>
<polygon points="958.08,273.48 947.30,280.51 951.04,290.78 961.62,284.15" fill="#a83d25"/>
<polygon points="1090.43,300.07 1075.85,312.65 1081.98,306.36 1097.57,292.72" fill="#a83d25"/>
<polygon points="965.31,348.30 948.54,353.03 948.21,364.47 966.94,359.69" fill="#a83d25"/>
<polygon points="851.79,278.28 843.18,270.32 854.31,268.04 861.62,275.52" fill="#e27b51"/>
<polygon points="829.32,357.00 815.13,347.75 809.86,338.12 824.32,347.59" fill="#ad4228"/>
<polygon points="921.89,290.49 908.72,292.24 913.05,301.64 926.01,300.10" fill="#a83d25"/>
<polygon points="1011.80,216.43 1002.74,223.83 996.60,230.12 1004.65,223.78" fill="#d56d47"/>
<polygon points="1015.37,338.01 1000.69,345.98 1005.22,352.76 1022.01,344.04" fill="#a83d25"/>
<polygon points="871.43,281.33 861.62,275.52 870.67,277.11 879.42,282.61" fill="#ce6642"/>
<polygon points="822.20,286.49 813.15,276.28 824.41,266.99 832.12,276.68" fill="#f48e5e"/>
<polygon points="1052.18,325.00 1037.56,334.77 1044.02,335.18 1060.37,324.29" fill="#a83d25"/>
<polygon points="1042.83,194.67 1033.09,204.17 1021.12,208.77 1030.21,200.57" fill="#e57e53"/>
<polygon points="809.47,312.39 798.31,301.54 804.15,288.19 814.39,298.79" fill="#e78054"/>
<polygon points="1127.16,250.30 1114.81,266.64 1112.79,253.41 1125.30,236.97" fill="#a83d25"/>
<polygon points="947.30,280.51 935.04,286.42 938.97,296.31 951.04,290.78" fill="#a83d25"/>
<polygon points="1067.05,181.33 1058.38,192.81 1042.83,194.67 1051.20,184.64" fill="#ef895b"/>
<polygon points="935.04,286.42 921.89,290.49 926.01,300.10 938.97,296.31" fill="#a83d25"/>
<polygon points="1111.70,278.01 1097.57,292.72 1100.17,282.00 1114.81,266.64" fill="#a83d25"/>
<polygon points="814.39,298.79 804.15,288.19 813.15,276.28 822.20,286.49" fill="#f18b5c"/>
<polygon points="974.33,250.84 965.82,258.76 967.18,266.01 974.81,258.73" fill="#c05637"/>
<polygon points="1127.70,206.96 1118.30,223.55 1106.83,211.36 1116.16,195.66" fill="#ca613f"/>
<polygon points="1002.74,223.83 994.05,231.29 989.11,236.55 996.60,230.12" fill="#d66e48"/>
<polygon points="929.02,367.20 910.27,367.54 905.23,375.27 925.68,375.04" fill="#a83d25"/>
<polygon points="1000.69,345.98 984.55,353.35 986.98,360.67 1005.22,352.76" fill="#a83d25"/>
<polygon points="903.41,286.75 890.51,285.96 896.52,291.43 908.72,292.24" fill="#b74d30"/>
<polygon points="853.08,370.08 836.71,362.78 829.32,357.00 846.38,364.52" fill="#a83d25"/>
<polygon points="1084.28,182.19 1075.33,195.20 1058.38,192.81 1067.05,181.33" fill="#f18a5c"/>
<polygon points="965.82,258.76 955.86,266.77 958.08,273.48 967.18,266.01" fill="#be5435"/>
<polygon points="842.15,285.12 832.12,276.68 843.18,270.32 851.79,278.28" fill="#ef885a"/>
<polygon points="824.32,347.59 809.86,338.12 807.90,325.94 822.19,335.48" fill="#c45a3a"/>
<polygon points="1033.09,204.17 1022.79,213.18 1011.80,216.43 1021.12,208.77" fill="#e57e53"/>
<polygon points="1037.56,334.77 1022.01,344.04 1026.65,345.41 1044.02,335.18" fill="#a83d25"/>
<polygon points="1075.85,312.65 1060.37,324.29 1065.30,319.04 1081.98,306.36" fill="#a83d25"/>
<polygon points="1116.16,195.66 1106.83,211.36 1092.02,201.59 1101.20,187.12" fill="#dc754d"/>
<polygon points="994.05,231.29 985.48,239.11 981.88,243.40 989.11,236.55" fill="#d66e48"/>
<polygon points="905.23,375.27 886.27,372.94 879.15,376.32 899.54,378.80" fill="#a83d25"/>
<polygon points="984.55,353.35 966.94,359.69 967.34,367.35 986.98,360.67" fill="#a83d25"/>
<polygon points="879.15,376.32 861.07,371.36 853.08,370.08 872.24,375.22" fill="#a83d25"/>
<polygon points="948.21,364.47 929.02,367.20 925.68,375.04 946.68,372.30" fill="#a83d25"/>
<polygon points="883.60,284.87 871.43,281.33 879.42,282.61 890.51,285.96" fill="#ce6542"/>
<polygon points="1101.20,187.12 1092.02,201.59 1075.33,195.20 1084.28,182.19" fill="#ea8357"/>
<polygon points="966.94,359.69 948.21,364.47 946.68,372.30 967.34,367.35" fill="#a83d25"/>
<polygon points="917.29,284.87 903.41,286.75 908.72,292.24 921.89,290.49" fill="#b74d31"/>
<polygon points="862.93,284.46 851.79,278.28 861.62,275.52 871.43,281.33" fill="#e17a50"/>
<polygon points="955.86,266.77 944.25,274.28 947.30,280.51 958.08,273.48" fill="#bc5234"/>
<polygon points="1058.38,192.81 1047.94,203.83 1033.09,204.17 1042.83,194.67" fill="#ef895b"/>
<polygon points="1125.30,236.97 1112.79,253.41 1105.84,239.60 1118.30,223.55" fill="#b74d30"/>
<polygon points="931.19,280.54 917.29,284.87 921.89,290.49 935.04,286.42" fill="#b84e31"/>
<polygon points="944.25,274.28 931.19,280.54 935.04,286.42 947.30,280.51" fill="#ba5032"/>
<polygon points="985.48,239.11 976.51,247.41 974.33,250.84 981.88,243.40" fill="#d66d47"/>
<polygon points="1097.57,292.72 1081.98,306.36 1083.94,296.35 1100.17,282.00" fill="#a83d25"/>
<polygon points="833.64,295.37 822.20,286.49 832.12,276.68 842.15,285.12" fill="#f48e5e"/>
<polygon points="822.19,335.48 807.90,325.94 809.47,312.39 823.14,321.85" fill="#d87049"/>
<polygon points="1022.79,213.18 1012.45,221.89 1002.74,223.83 1011.80,216.43" fill="#e67f53"/>
<polygon points="1022.01,344.04 1005.22,352.76 1007.98,354.92 1026.65,345.41" fill="#a83d25"/>
<polygon points="1114.81,266.64 1100.17,282.00 1097.97,268.96 1112.79,253.41" fill="#a83d25"/>
<polygon points="846.38,364.52 829.32,357.00 824.32,347.59 841.62,355.22" fill="#ae442a"/>
<polygon points="1060.37,324.29 1044.02,335.18 1047.63,330.89 1065.30,319.04" fill="#a83d25"/>
<polygon points="827.09,308.03 814.39,298.79 822.20,286.49 833.64,295.37" fill="#f28b5d"/>
<polygon points="823.14,321.85 809.47,312.39 814.39,298.79 827.09,308.03" fill="#e88155"/>
<polygon points="925.68,375.04 905.23,375.27 899.54,378.80 921.49,378.59" fill="#a83d25"/>
<polygon points="897.62,285.72 883.60,284.87 890.51,285.96 903.41,286.75" fill="#ce6541"/>
<polygon points="976.51,247.41 966.56,256.08 965.82,258.76 974.33,250.84" fill="#d46c46"/>
<polygon points="1075.33,195.20 1064.21,207.77 1047.94,203.83 1058.38,192.81" fill="#f18b5c"/>
<polygon points="1118.30,223.55 1105.84,239.60 1094.65,226.58 1106.83,211.36" fill="#cc6440"/>
<polygon points="1012.45,221.89 1002.24,230.59 994.05,231.29 1002.74,223.83" fill="#e67f54"/>
<polygon points="1005.22,352.76 986.98,360.67 987.89,363.43 1007.98,354.92" fill="#a83d25"/>
<polygon points="1047.94,203.83 1036.56,214.34 1022.79,213.18 1033.09,204.17" fill="#f0895b"/>
<polygon points="854.76,291.68 842.15,285.12 851.79,278.28 862.93,284.46" fill="#ee885a"/>
<polygon points="872.24,375.22 853.08,370.08 846.38,364.52 866.23,369.76" fill="#a83d25"/>
<polygon points="899.54,378.80 879.15,376.32 872.24,375.22 893.75,377.76" fill="#a83d25"/>
<polygon points="876.48,288.25 862.93,284.46 871.43,281.33 883.60,284.87" fill="#e17950"/>
<polygon points="946.68,372.30 925.68,375.04 921.49,378.59 944.10,375.74" fill="#a83d25"/>
<polygon points="966.56,256.08 955.17,264.70 955.86,266.77 965.82,258.76" fill="#d36a45"/>
<polygon points="1092.02,201.59 1080.31,215.61 1064.21,207.77 1075.33,195.20" fill="#eb8558"/>
<polygon points="1106.83,211.36 1094.65,226.58 1080.31,215.61 1092.02,201.59" fill="#df774e"/>
<polygon points="986.98,360.67 967.34,367.35 966.46,370.54 987.89,363.43" fill="#a83d25"/>
<polygon points="1081.98,306.36 1065.30,319.04 1066.51,309.74 1083.94,296.35" fill="#a83d25"/>
<polygon points="912.68,283.77 897.62,285.72 903.41,286.75 917.29,284.87" fill="#ce6542"/>
<polygon points="1044.02,335.18 1026.65,345.41 1028.83,341.99 1047.63,330.89" fill="#a83d25"/>
<polygon points="967.34,367.35 946.68,372.30 944.10,375.74 966.46,370.54" fill="#a83d25"/>
<polygon points="841.62,355.22 824.32,347.59 822.19,335.48 839.28,343.10" fill="#c55c3b"/>
<polygon points="1002.24,230.59 991.95,239.52 985.48,239.11 994.05,231.29" fill="#e67f54"/>
<polygon points="1112.79,253.41 1097.97,268.96 1091.18,254.87 1105.84,239.60" fill="#b95032"/>
<polygon points="955.17,264.70 942.18,272.67 944.25,274.28 955.86,266.77" fill="#d16944"/>
<polygon points="1100.17,282.00 1083.94,296.35 1081.53,283.58 1097.97,268.96" fill="#a83d25"/>
<polygon points="927.82,279.26 912.68,283.77 917.29,284.87 931.19,280.54" fill="#cf6642"/>
<polygon points="1036.56,214.34 1024.79,224.49 1012.45,221.89 1022.79,213.18" fill="#f08a5b"/>
<polygon points="847.71,302.30 833.64,295.37 842.15,285.12 854.76,291.68" fill="#f48e5e"/>
<polygon points="942.18,272.67 927.82,279.26 931.19,280.54 944.25,274.28" fill="#d06743"/>
<polygon points="1064.21,207.77 1051.75,219.80 1036.56,214.34 1047.94,203.83" fill="#f28c5d"/>
<polygon points="991.95,239.52 981.16,248.78 976.51,247.41 985.48,239.11" fill="#e67f54"/>
<polygon points="839.28,343.10 822.19,335.48 823.14,321.85 839.57,329.33" fill="#d9714a"/>
<polygon points="891.93,289.24 876.48,288.25 883.60,284.87 897.62,285.72" fill="#e17950"/>
<polygon points="921.49,378.59 899.54,378.80 893.75,377.76 916.88,377.50" fill="#a83d25"/>
<polygon points="1026.65,345.41 1007.98,354.92 1008.73,352.24 1028.83,341.99" fill="#a83d25"/>
<polygon points="866.23,369.76 846.38,364.52 841.62,355.22 861.70,360.46" fill="#af452a"/>
<polygon points="869.83,295.77 854.76,291.68 862.93,284.46 876.48,288.25" fill="#ee885a"/>
<polygon points="842.48,315.28 827.09,308.03 833.64,295.37 847.71,302.30" fill="#f28c5d"/>
<polygon points="1065.30,319.04 1047.63,330.89 1048.01,322.32 1066.51,309.74" fill="#a83d25"/>
<polygon points="1105.84,239.60 1091.18,254.87 1080.47,241.11 1094.65,226.58" fill="#cf6642"/>
<polygon points="839.57,329.33 823.14,321.85 827.09,308.03 842.48,315.28" fill="#e98256"/>
<polygon points="893.75,377.76 872.24,375.22 866.23,369.76 888.44,372.28" fill="#a83d25"/>
<polygon points="1024.79,224.49 1012.86,234.50 1002.24,230.59 1012.45,221.89" fill="#f08a5c"/>
<polygon points="981.16,248.78 969.33,258.23 966.56,256.08 976.51,247.41" fill="#e57e53"/>
<polygon points="1080.31,215.61 1066.88,229.02 1051.75,219.80 1064.21,207.77" fill="#ed8659"/>
<polygon points="1094.65,226.58 1080.47,241.11 1066.88,229.02 1080.31,215.61" fill="#e07950"/>
<polygon points="1007.98,354.92 987.89,363.43 987.21,361.36 1008.73,352.24" fill="#a83d25"/>
<polygon points="944.10,375.74 921.49,378.59 916.88,377.50 940.72,374.46" fill="#a83d25"/>
<polygon points="908.49,287.32 891.93,289.24 897.62,285.72 912.68,283.77" fill="#e17950"/>
<polygon points="1083.94,296.35 1066.51,309.74 1063.87,297.32 1081.53,283.58" fill="#a83d25"/>
<polygon points="1097.97,268.96 1081.53,283.58 1074.98,269.31 1091.18,254.87" fill="#bb5234"/>
<polygon points="1051.75,219.80 1038.55,231.37 1024.79,224.49 1036.56,214.34" fill="#f38d5d"/>
<polygon points="969.33,258.23 956.09,267.46 955.17,264.70 966.56,256.08" fill="#e47d52"/>
<polygon points="987.89,363.43 966.46,370.54 964.40,368.93 987.21,361.36" fill="#a83d25"/>
<polygon points="966.46,370.54 944.10,375.74 940.72,374.46 964.40,368.93" fill="#a83d25"/>
<polygon points="1012.86,234.50 1000.65,244.59 991.95,239.52 1002.24,230.59" fill="#f08a5c"/>
<polygon points="861.70,360.46 841.62,355.22 839.28,343.10 859.10,348.24" fill="#c65d3c"/>
<polygon points="864.32,306.70 847.71,302.30 854.76,291.68 869.83,295.77" fill="#f48e5e"/>
<polygon points="1047.63,330.89 1028.83,341.99 1028.35,334.10 1048.01,322.32" fill="#a83d25"/>
<polygon points="925.24,282.70 908.49,287.32 912.68,283.77 927.82,279.26" fill="#e17a50"/>
<polygon points="956.09,267.46 941.30,275.85 942.18,272.67 955.17,264.70" fill="#e37c51"/>
<polygon points="886.89,296.97 869.83,295.77 876.48,288.25 891.93,289.24" fill="#ee875a"/>
<polygon points="941.30,275.85 925.24,282.70 927.82,279.26 942.18,272.67" fill="#e27b51"/>
<polygon points="916.88,377.50 893.75,377.76 888.44,372.28 912.28,371.87" fill="#a83d25"/>
<polygon points="1091.18,254.87 1074.98,269.31 1064.94,254.93 1080.47,241.11" fill="#d16844"/>
<polygon points="888.44,372.28 866.23,369.76 861.70,360.46 884.12,362.87" fill="#b0462b"/>
<polygon points="1066.88,229.02 1052.39,241.86 1038.55,231.37 1051.75,219.80" fill="#ee875a"/>
<polygon points="1000.65,244.59 987.80,254.82 981.16,248.78 991.95,239.52" fill="#f08a5c"/>
<polygon points="859.10,348.24 839.28,343.10 839.57,329.33 858.67,334.29" fill="#da734b"/>
<polygon points="1038.55,231.37 1024.90,242.66 1012.86,234.50 1024.79,224.49" fill="#f38d5e"/>
<polygon points="860.47,319.98 842.48,315.28 847.71,302.30 864.32,306.70" fill="#f38c5d"/>
<polygon points="1066.51,309.74 1048.01,322.32 1045.14,310.30 1063.87,297.32" fill="#a83d25"/>
<polygon points="1028.83,341.99 1008.73,352.24 1007.37,344.98 1028.35,334.10" fill="#a83d25"/>
<polygon points="1080.47,241.11 1064.94,254.93 1052.39,241.86 1066.88,229.02" fill="#e27b51"/>
<polygon points="858.67,334.29 839.57,329.33 842.48,315.28 860.47,319.98" fill="#ea8357"/>
<polygon points="1081.53,283.58 1063.87,297.32 1057.65,282.99 1074.98,269.31" fill="#bd5335"/>
<polygon points="905.15,295.16 886.89,296.97 891.93,289.24 908.49,287.32" fill="#ee885a"/>
<polygon points="987.80,254.82 973.86,265.01 969.33,258.23 981.16,248.78" fill="#f08a5b"/>
<polygon points="940.72,374.46 916.88,377.50 912.28,371.87 936.87,368.58" fill="#a83d25"/>
<polygon points="882.99,308.16 864.32,306.70 869.83,295.77 886.89,296.97" fill="#f48e5f"/>
<polygon points="1008.73,352.24 987.21,361.36 984.98,354.66 1007.37,344.98" fill="#a83d25"/>
<polygon points="1024.90,242.66 1010.73,253.83 1000.65,244.59 1012.86,234.50" fill="#f48d5e"/>
<polygon points="1052.39,241.86 1037.15,254.25 1024.90,242.66 1038.55,231.37" fill="#ef885a"/>
<polygon points="884.12,362.87 861.70,360.46 859.10,348.24 881.21,350.47" fill="#c75e3c"/>
<polygon points="973.86,265.01 958.51,274.78 956.09,267.46 969.33,258.23" fill="#f0895b"/>
<polygon points="964.40,368.93 940.72,374.46 936.87,368.58 961.34,362.69" fill="#a83d25"/>
<polygon points="987.21,361.36 964.40,368.93 961.34,362.69 984.98,354.66" fill="#a83d25"/>
<polygon points="1048.01,322.32 1028.35,334.10 1025.25,322.52 1045.14,310.30" fill="#a93e25"/>
<polygon points="923.70,290.52 905.15,295.16 908.49,287.32 925.24,282.70" fill="#ee885a"/>
<polygon points="1074.98,269.31 1057.65,282.99 1048.44,268.15 1064.94,254.93" fill="#d26a45"/>
<polygon points="912.28,371.87 888.44,372.28 884.12,362.87 908.16,362.26" fill="#b0462b"/>
<polygon points="958.51,274.78 941.70,283.51 941.30,275.85 956.09,267.46" fill="#ef895b"/>
<polygon points="1064.94,254.93 1048.44,268.15 1037.15,254.25 1052.39,241.86" fill="#e37c52"/>
<polygon points="941.70,283.51 923.70,290.52 925.24,282.70 941.30,275.85" fill="#ef885a"/>
<polygon points="1063.87,297.32 1045.14,310.30 1039.30,296.02 1057.65,282.99" fill="#be5536"/>
<polygon points="880.62,321.71 860.47,319.98 864.32,306.70 882.99,308.16" fill="#f38d5e"/>
<polygon points="1010.73,253.83 995.79,264.92 987.80,254.82 1000.65,244.59" fill="#f48e5e"/>
<polygon points="881.21,350.47 859.10,348.24 858.67,334.29 880.01,336.29" fill="#db744c"/>
<polygon points="902.97,306.53 882.99,308.16 886.89,296.97 905.15,295.16" fill="#f48e5f"/>
<polygon points="880.01,336.29 858.67,334.29 860.47,319.98 880.62,321.71" fill="#ea8457"/>
<polygon points="1028.35,334.10 1007.37,344.98 1004.04,333.86 1025.25,322.52" fill="#aa3f26"/>
<polygon points="1037.15,254.25 1021.21,266.33 1010.73,253.83 1024.90,242.66" fill="#ef895b"/>
<polygon points="936.87,368.58 912.28,371.87 908.16,362.26 932.94,358.68" fill="#af452b"/>
<polygon points="995.79,264.92 979.70,275.76 973.86,265.01 987.80,254.82" fill="#f48e5e"/>
<polygon points="1057.65,282.99 1039.30,296.02 1031.05,280.86 1048.44,268.15" fill="#d46b46"/>
<polygon points="908.16,362.26 884.12,362.87 881.21,350.47 904.91,349.61" fill="#c75e3d"/>
<polygon points="1048.44,268.15 1031.05,280.86 1021.21,266.33 1037.15,254.25" fill="#e47d53"/>
<polygon points="1045.14,310.30 1025.25,322.52 1019.83,308.39 1039.30,296.02" fill="#c05637"/>
<polygon points="1007.37,344.98 984.98,354.66 981.45,343.98 1004.04,333.86" fill="#ab4127"/>
<polygon points="923.37,301.97 902.97,306.53 905.15,295.16 923.70,290.52" fill="#f48e5f"/>
<polygon points="961.34,362.69 936.87,368.58 932.94,358.68 957.60,352.43" fill="#ae442a"/>
<polygon points="979.70,275.76 962.21,285.95 958.51,274.78 973.86,265.01" fill="#f48e5f"/>
<polygon points="1021.21,266.33 1004.34,278.11 995.79,264.92 1010.73,253.83" fill="#f08a5b"/>
<polygon points="902.18,320.31 880.62,321.71 882.99,308.16 902.97,306.53" fill="#f38d5e"/>
<polygon points="984.98,354.66 961.34,362.69 957.60,352.43 981.45,343.98" fill="#ad4229"/>
<polygon points="943.33,294.90 923.37,301.97 923.70,290.52 941.70,283.51" fill="#f48e5f"/>
<polygon points="962.21,285.95 943.33,294.90 941.70,283.51 958.51,274.78" fill="#f48e5f"/>
<polygon points="904.91,349.61 881.21,350.47 880.01,336.29 902.85,335.15" fill="#db744c"/>
<polygon points="902.85,335.15 880.01,336.29 880.62,321.71 902.18,320.31" fill="#eb8457"/>
<polygon points="1039.30,296.02 1019.83,308.39 1012.63,293.09 1031.05,280.86" fill="#d56d47"/>
<polygon points="1025.25,322.52 1004.04,333.86 999.08,319.96 1019.83,308.39" fill="#c15838"/>
<polygon points="1031.05,280.86 1012.63,293.09 1004.34,278.11 1021.21,266.33" fill="#e57e53"/>
<polygon points="932.94,358.68 908.16,362.26 904.91,349.61 929.30,345.73" fill="#c75e3c"/>
<polygon points="1004.34,278.11 986.28,289.42 979.70,275.76 995.79,264.92" fill="#f18b5c"/>
<polygon points="924.27,315.91 902.18,320.31 902.97,306.53 923.37,301.97" fill="#f38d5e"/>
<polygon points="1004.04,333.86 981.45,343.98 976.94,330.38 999.08,319.96" fill="#c35a39"/>
<polygon points="957.60,352.43 932.94,358.68 929.30,345.73 953.54,339.15" fill="#c65d3b"/>
<polygon points="986.28,289.42 966.83,299.87 962.21,285.95 979.70,275.76" fill="#f28b5c"/>
<polygon points="1019.83,308.39 999.08,319.96 992.96,304.65 1012.63,293.09" fill="#d66e48"/>
<polygon points="981.45,343.98 957.60,352.43 953.54,339.15 976.94,330.38" fill="#c45b3a"/>
<polygon points="929.30,345.73 904.91,349.61 902.85,335.15 926.31,330.99" fill="#db734c"/>
<polygon points="1012.63,293.09 992.96,304.65 986.28,289.42 1004.34,278.11" fill="#e78054"/>
<polygon points="946.04,308.91 924.27,315.91 923.37,301.97 943.33,294.90" fill="#f38d5d"/>
<polygon points="926.31,330.99 902.85,335.15 902.18,320.31 924.27,315.91" fill="#ea8457"/>
<polygon points="966.83,299.87 946.04,308.91 943.33,294.90 962.21,285.95" fill="#f28c5d"/>
<polygon points="999.08,319.96 976.94,330.38 971.90,315.18 992.96,304.65" fill="#d77049"/>
<polygon points="992.96,304.65 971.90,315.18 966.83,299.87 986.28,289.42" fill="#e88155"/>
<polygon points="953.54,339.15 929.30,345.73 926.31,330.99 949.56,324.15" fill="#da724b"/>
<polygon points="949.56,324.15 926.31,330.99 924.27,315.91 946.04,308.91" fill="#ea8357"/>
<polygon points="976.94,330.38 953.54,339.15 949.56,324.15 971.90,315.18" fill="#d9714a"/>
<polygon points="971.90,315.18 949.56,324.15 946.04,308.91 966.83,299.87" fill="#e98256"/>
</g>
<g font-family="'Segoe UI',Arial,sans-serif" fill="#51594e" font-size="13" letter-spacing="1.6">
<path d="M48 385H1152" stroke="#c7c8b8"/>
<text x="48" y="414">EXPLORE / BUILD / REPEAT</text>
<text x="1152" y="414" text-anchor="end">01 / ∞</text>
</g>
<rect x=".5" y=".5" width="1199" height="439" rx="11.5" fill="none" stroke="#d8d5c9"/>
</svg>
